<svg width="36" height="38" fill="none" xmlns="http://www.w3.org/2000/svg"><path d="M14.402 0a.898.898 0 00-.637.265.908.908 0 00.637 1.545h1.796v1.833C7.183 4.116 0 11.63 0 20.809 0 30.294 7.667 38.007 17.1 38a16.903 16.903 0 006.44-1.293A8.016 8.016 0 0027.903 38C32.365 38 36 34.344 36 29.858a8.13 8.13 0 00-2.183-5.542c.245-1.15.382-2.323.383-3.506.006-9.18-7.184-16.696-16.2-17.167V1.81h1.8a.898.898 0 00.636-.265A.908.908 0 0019.799 0h-5.397zM17.1 5.429c8.46 0 15.305 6.875 15.3 15.38 0 .728-.063 1.456-.17 2.178a8 8 0 00-4.328-1.274c-4.463 0-8.103 3.659-8.103 8.145a8.12 8.12 0 002.163 5.515 15.073 15.073 0 01-4.863.818C8.64 36.196 1.8 29.314 1.8 20.809c0-8.505 6.84-15.38 15.3-15.38zm10.802 18.094c3.49 0 6.297 2.826 6.297 6.335s-2.807 6.332-6.297 6.332c-3.49 0-6.302-2.823-6.302-6.332s2.812-6.335 6.302-6.335z" fill="#405EAA"/><path d="M26.08 10.85a.898.898 0 00-.617.274l-7.205 7.242a2.656 2.656 0 00-1.16-.27c-1.48 0-2.696 1.223-2.696 2.712 0 .417.098.811.268 1.166l-.906.911a.905.905 0 00-.022 1.3.902.902 0 001.001.188c.11-.049.21-.12.293-.209l.905-.91c.352.171.743.269 1.157.269 1.48 0 2.701-1.227 2.701-2.715 0-.416-.097-.81-.267-1.164l7.203-7.241a.906.906 0 00-.654-1.553zm-8.982 9.057c.508 0 .901.39.901.9a.89.89 0 01-.9.906.89.89 0 01-.9-.905c0-.51.391-.901.9-.901zM18 8.143a.91.91 0 01-.556.836.896.896 0 01-1.175-.49.91.91 0 01.195-.986.898.898 0 011.536.64zM4.498 19.906a.9.9 0 01.637.265.907.907 0 01-.637 1.545.895.895 0 01-.831-.559.909.909 0 01.195-.986.898.898 0 01.636-.265zM16.2 33.48c0-.24.095-.47.264-.64a.898.898 0 011.536.64.91.91 0 01-.556.835.897.897 0 01-1.175-.49.91.91 0 01-.069-.346zm-8.647-4.35a.899.899 0 011.536.639.909.909 0 01-.555.836.897.897 0 01-1.176-.49.909.909 0 01.195-.986zm1.273-17.917a.906.906 0 01-.637 1.545.895.895 0 01-.831-.558.909.909 0 01.487-1.183.895.895 0 01.98.197zM31.034 27.14a.898.898 0 00-.621.273l-2.963 2.98-1.163-1.17a.9.9 0 00-1.293-.02.906.906 0 00.02 1.3l1.801 1.81a.898.898 0 001.272 0l3.598-3.62a.906.906 0 00-.651-1.553z" fill="#405EAA"/></svg>