<svg width="34" height="34" fill="none" xmlns="http://www.w3.org/2000/svg"><path d="M1.114.002a1.234 1.234 0 00-.797.417A1.291 1.291 0 000 1.277v13.599c0 .338.131.662.364.901.234.24.55.374.88.374h13.268c.33 0 .646-.134.88-.374a1.29 1.29 0 00.364-.901v-13.6c0-.337-.131-.662-.364-.9a1.229 1.229 0 00-.88-.374H1.244a1.214 1.214 0 00-.13 0zm18.244 0c-.307.033-.59.181-.797.417a1.294 1.294 0 00-.317.858v31.448c0 .338.131.663.364.901.233.24.55.374.88.374h13.268c.33 0 .646-.134.88-.373a1.29 1.29 0 00.364-.902V1.277c0-.338-.131-.663-.364-.902a1.229 1.229 0 00-.88-.373H19.488a1.214 1.214 0 00-.13 0zm-16.87 2.55h10.78V13.6H2.488V2.551zm18.244 0h10.78V31.45h-10.78V2.552zM7.865 3.8a1.218 1.218 0 00-.88.387 1.28 1.28 0 00-.35.914v1.7h-1.66a1.218 1.218 0 00-.6.123c-.148.072-.28.173-.39.298a1.284 1.284 0 00-.318.92 1.302 1.302 0 00.41.883 1.24 1.24 0 00.899.326h1.658v1.7a1.303 1.303 0 00.358.913 1.243 1.243 0 00.886.38 1.218 1.218 0 00.886-.38 1.278 1.278 0 00.358-.913v-1.7h1.659a1.217 1.217 0 00.89-.367 1.277 1.277 0 00.371-.908 1.301 1.301 0 00-.37-.908 1.242 1.242 0 00-.892-.367H9.123v-1.7a1.303 1.303 0 00-.36-.923 1.243 1.243 0 00-.897-.378zM23.09 14.451a1.222 1.222 0 00-.86.42 1.285 1.285 0 00-.32.921 1.301 1.301 0 00.41.882 1.24 1.24 0 00.9.327h5.804a1.217 1.217 0 00.891-.367 1.276 1.276 0 00.371-.908 1.303 1.303 0 00-.37-.908 1.24 1.24 0 00-.892-.367H23.22a1.218 1.218 0 00-.13 0zm0 3.4a1.222 1.222 0 00-.86.42 1.284 1.284 0 00-.32.921 1.302 1.302 0 00.41.882 1.24 1.24 0 00.9.327h5.804a1.217 1.217 0 00.891-.367 1.277 1.277 0 00.371-.908 1.304 1.304 0 00-.37-.908 1.242 1.242 0 00-.892-.367H23.22a1.218 1.218 0 00-.13 0zm-21.976.85a1.234 1.234 0 00-.797.417 1.291 1.291 0 00-.317.858v12.75c0 .337.131.662.364.9.234.24.55.374.88.374h13.268c.33 0 .646-.134.88-.373a1.29 1.29 0 00.364-.902v-12.75c0-.337-.131-.662-.364-.9a1.228 1.228 0 00-.88-.374H1.244a1.217 1.217 0 00-.13 0zm1.374 2.55h10.78v10.2H2.488v-10.2zm2.358 3.825a1.218 1.218 0 00-.86.42 1.283 1.283 0 00-.32.92 1.303 1.303 0 00.41.883 1.239 1.239 0 00.9.326h5.804a1.217 1.217 0 00.892-.367 1.276 1.276 0 00.37-.908 1.301 1.301 0 00-.37-.908 1.242 1.242 0 00-.892-.366H4.976a1.167 1.167 0 00-.13 0z" fill="#405EAA"/></svg>