<svg width="24" height="53" fill="none" xmlns="http://www.w3.org/2000/svg"><path d="M16 27.667h-2.667V0h-2.666v27.667H8c-4.4 0-8 3.6-8 8V41h5.467c.6 3.067 3.333 5.333 6.533 5.333s5.933-2.266 6.533-5.333H24v-5.333c0-4.4-3.6-8-8-8zm-4 16c-1.733 0-3.2-1.134-3.8-2.667h7.533c-.533 1.533-2 2.667-3.733 2.667zm9.333-5.334H2.667v-2.666c0-2.934 2.4-5.334 5.333-5.334h8c2.933 0 5.333 2.4 5.333 5.334v2.666zm-8 10.667h-2.666v4h2.666v-4zm6.19-3.674l-1.886 1.885 2.828 2.829 1.886-1.886-2.828-2.828zm-15.066-.022L1.63 48.132l1.885 1.886 2.829-2.829-1.886-1.885z" fill="#405EAA"/></svg>