<svg width="718" height="780" fill="none" xmlns="http://www.w3.org/2000/svg"><path d="M705.508 11.23l2.199 3.105c-18.533-.04-33.438 7.057-49.347 14.475-17.821 8.43-38.138 18.14-65.321 17.525-26.925-.46-48.761-10.532-67.94-19.62-17.884-8.309-33.37-15.79-52.421-16.142-19.051-.351-33.373 6.478-50.449 14.43-17.821 8.43-38.137 18.14-65.321 17.525-26.924-.46-48.598-10.744-67.94-19.621-17.883-8.308-33.369-15.789-52.421-16.14-19.051-.353-33.373 6.476-50.449 14.429-17.821 8.43-38.137 18.14-65.321 17.524-26.924-.46-48.76-10.531-67.94-19.62C35.893 11.05 19.987 3.623 1.518 3.005L0 0c26.341.726 47.756 10.854 66.417 19.63 17.884 8.309 33.37 15.79 52.421 16.141 19.051.352 33.373-6.477 50.449-14.43 17.821-8.43 38.137-18.14 65.321-17.524 26.924.46 48.76 10.532 67.939 19.621 17.884 8.308 33.37 15.789 52.421 16.14 19.051.353 33.373-6.476 50.449-14.429 17.821-8.43 38.138-18.14 65.321-17.524 26.925.46 48.761 10.531 67.94 19.62 17.884 8.308 33.37 15.79 52.421 16.141 19.051.352 33.373-6.477 50.449-14.43 17.562-8.586 37.554-17.873 63.96-17.726z" fill="#EDF4FA"/><path d="M705.508 29.061l2.199 3.106c-18.533-.04-33.438 7.056-49.347 14.475-17.821 8.43-38.138 18.14-65.321 17.524-26.925-.46-48.761-10.531-67.94-19.62-17.884-8.308-33.37-15.79-52.421-16.141-19.051-.352-33.373 6.477-50.449 14.43-17.821 8.43-38.137 18.14-65.321 17.524-26.924-.46-48.598-10.743-67.94-19.62-17.883-8.308-33.369-15.79-52.421-16.141-19.051-.352-33.373 6.477-50.449 14.43-17.821 8.43-38.137 18.14-65.321 17.524-26.924-.46-48.76-10.532-67.94-19.62-16.944-8.052-32.85-15.477-51.319-16.096L0 17.831c26.341.727 47.756 10.855 66.417 19.631 17.884 8.308 33.37 15.789 52.421 16.14 19.051.353 33.373-6.476 50.449-14.429 17.821-8.43 38.137-18.14 65.321-17.524 26.924.46 48.76 10.532 67.939 19.62 17.884 8.308 33.37 15.79 52.421 16.141 19.051.352 33.373-6.477 50.449-14.43 17.821-8.43 38.138-18.14 65.321-17.524 26.925.46 48.761 10.532 67.94 19.62 17.884 8.309 33.37 15.79 52.421 16.142 19.051.352 33.373-6.478 50.449-14.43 17.562-8.587 37.554-17.874 63.96-17.727z" fill="#EDF4FA"/><path d="M705.508 49.44l2.199 3.105c-18.533-.039-33.438 7.057-49.347 14.475-17.821 8.431-38.138 18.141-65.321 17.525-26.925-.46-48.761-10.531-67.94-19.62-17.884-8.308-33.37-15.79-52.421-16.141-19.051-.352-33.373 6.477-50.449 14.43-17.821 8.43-38.137 18.14-65.321 17.524-26.924-.46-48.598-10.743-67.94-19.62-17.883-8.309-33.369-15.79-52.421-16.142-19.051-.352-33.373 6.478-50.449 14.43-17.821 8.43-38.137 18.14-65.321 17.525-26.924-.46-48.76-10.532-67.94-19.621-16.944-8.05-32.85-15.476-51.319-16.095L0 38.21c26.341.727 47.756 10.854 66.417 19.631 17.884 8.308 33.37 15.789 52.421 16.14 19.051.353 33.373-6.477 50.449-14.429 17.821-8.43 38.137-18.14 65.321-17.524 26.924.46 48.76 10.531 67.939 19.62 17.884 8.308 33.37 15.79 52.421 16.141 19.051.352 33.373-6.477 50.449-14.43 17.821-8.43 38.138-18.14 65.321-17.524 26.925.46 48.761 10.532 67.94 19.62 17.884 8.309 33.37 15.79 52.421 16.142 19.051.352 33.373-6.478 50.449-14.43 17.562-8.587 37.554-17.874 63.96-17.727z" fill="#EDF4FA"/><path d="M705.508 71.093l2.199 3.105c-18.533-.04-33.438 7.056-49.347 14.475-17.821 8.43-38.138 18.141-65.321 17.525-26.925-.46-48.761-10.532-67.94-19.621-17.884-8.308-33.37-15.789-52.421-16.14-19.051-.353-33.373 6.476-50.449 14.429-17.821 8.43-38.137 18.14-65.321 17.524-26.924-.459-48.598-10.743-67.94-19.62-17.883-8.308-33.369-15.79-52.421-16.141-19.051-.352-33.373 6.477-50.449 14.43-17.821 8.43-38.137 18.14-65.321 17.524-26.924-.46-48.76-10.531-67.94-19.62-16.944-8.051-32.85-15.477-51.319-16.096L0 59.863c26.341.726 47.756 10.854 66.417 19.63 17.884 8.308 33.37 15.789 52.421 16.141 19.051.352 33.373-6.477 50.449-14.43 17.821-8.43 38.137-18.14 65.321-17.524 26.924.46 48.76 10.532 67.939 19.62 17.884 8.309 33.37 15.79 52.421 16.142 19.051.352 33.373-6.478 50.449-14.43 17.821-8.43 38.138-18.14 65.321-17.525 26.925.46 48.761 10.532 67.94 19.621 17.884 8.308 33.37 15.789 52.421 16.141 19.051.352 33.373-6.477 50.449-14.43 17.562-8.587 37.554-17.873 63.96-17.726z" fill="#EDF4FA"/><path d="M705.508 91.472l2.199 3.105c-18.533-.04-33.438 7.056-49.347 14.475-17.821 8.43-38.138 18.14-65.321 17.525-26.925-.46-48.761-10.532-67.94-19.621-17.884-8.308-33.37-15.789-52.421-16.141-19.051-.352-33.373 6.477-50.449 14.429-17.821 8.431-38.137 18.141-65.321 17.525-26.924-.459-48.598-10.743-67.94-19.621-17.883-8.307-33.369-15.788-52.421-16.14-19.051-.352-33.373 6.477-50.449 14.429-17.821 8.431-38.137 18.141-65.321 17.525-26.924-.46-48.76-10.532-67.94-19.62-16.944-8.051-32.85-15.477-51.319-16.096L0 80.242c26.341.726 47.756 10.854 66.417 19.63 17.884 8.308 33.37 15.789 52.421 16.141 19.051.352 33.373-6.477 50.449-14.43 17.821-8.43 38.137-18.14 65.321-17.524 26.924.46 48.76 10.532 67.939 19.621 17.884 8.307 33.37 15.788 52.421 16.14 19.051.352 33.373-6.477 50.449-14.429 17.821-8.43 38.138-18.14 65.321-17.525 26.925.46 48.761 10.532 67.94 19.621 17.884 8.308 33.37 15.789 52.421 16.141 19.051.352 33.373-6.478 50.449-14.43 17.562-8.587 37.554-17.874 63.96-17.726z" fill="#EDF4FA"/><path d="M705.508 109.303l2.199 3.105c-18.533-.039-33.438 7.057-49.347 14.475-17.821 8.431-38.138 18.141-65.321 17.525-26.925-.459-48.761-10.532-67.94-19.621-17.884-8.308-33.37-15.788-52.421-16.14-19.051-.352-33.373 6.477-50.449 14.429-17.821 8.431-38.137 18.141-65.321 17.525-26.924-.46-48.598-10.744-67.94-19.621-17.883-8.308-33.369-15.789-52.421-16.141-19.051-.352-33.373 6.477-50.449 14.43-17.821 8.43-38.137 18.14-65.321 17.525-26.924-.46-48.76-10.532-67.94-19.621-16.944-8.051-32.85-15.476-51.319-16.095L0 98.073c26.341.727 47.756 10.854 66.417 19.631 17.884 8.307 33.37 15.788 52.421 16.14 19.051.352 33.373-6.477 50.449-14.429 17.821-8.431 38.137-18.141 65.321-17.525 26.924.46 48.76 10.532 67.939 19.621 17.884 8.308 33.37 15.789 52.421 16.141 19.051.352 33.373-6.477 50.449-14.43 17.821-8.43 38.138-18.14 65.321-17.524 26.925.459 48.761 10.531 67.94 19.621 17.884 8.307 33.37 15.788 52.421 16.14 19.051.352 33.373-6.477 50.449-14.429 17.562-8.587 37.554-17.874 63.96-17.727z" fill="#EDF4FA"/><path d="M705.508 129.682l2.199 3.105c-18.533-.039-33.438 7.057-49.347 14.475-17.821 8.431-38.138 18.141-65.321 17.525-26.925-.46-48.761-10.532-67.94-19.621-17.884-8.308-33.37-15.789-52.421-16.141-19.051-.352-33.373 6.478-50.449 14.43-17.821 8.43-38.137 18.14-65.321 17.525-26.924-.46-48.598-10.744-67.94-19.621-17.883-8.308-33.369-15.789-52.421-16.141-19.051-.352-33.373 6.477-50.449 14.43-17.821 8.43-38.137 18.14-65.321 17.524-26.924-.459-48.76-10.531-67.94-19.621-16.944-8.05-32.85-15.476-51.319-16.095L0 118.452c26.341.726 47.756 10.854 66.417 19.63 17.884 8.308 33.37 15.789 52.421 16.141 19.051.352 33.373-6.477 50.449-14.429 17.821-8.431 38.137-18.141 65.321-17.525 26.924.46 48.76 10.532 67.939 19.621 17.884 8.308 33.37 15.789 52.421 16.141 19.051.352 33.373-6.478 50.449-14.43 17.821-8.43 38.138-18.14 65.321-17.525 26.925.46 48.761 10.532 67.94 19.621 17.884 8.308 33.37 15.789 52.421 16.141 19.051.352 33.373-6.477 50.449-14.43 17.562-8.586 37.554-17.873 63.96-17.726z" fill="#EDF4FA"/><path d="M705.508 151.334l2.199 3.105c-18.533-.039-33.438 7.057-49.347 14.475-17.821 8.431-38.138 18.141-65.321 17.525-26.925-.459-48.761-10.531-67.94-19.621-17.884-8.307-33.37-15.788-52.421-16.14-19.051-.352-33.373 6.477-50.449 14.429-17.821 8.431-38.137 18.141-65.321 17.525-26.924-.46-48.598-10.743-67.94-19.621-17.883-8.308-33.369-15.789-52.421-16.141-19.051-.351-33.373 6.478-50.449 14.43-17.821 8.431-38.137 18.141-65.321 17.525-26.924-.46-48.76-10.532-67.94-19.621-16.944-8.051-32.85-15.476-51.319-16.095L0 140.104c26.341.727 47.756 10.854 66.417 19.631 17.884 8.308 33.37 15.789 52.421 16.141 19.051.352 33.373-6.478 50.449-14.43 17.821-8.431 38.137-18.14 65.321-17.524 26.924.459 48.76 10.531 67.939 19.62 17.884 8.308 33.37 15.789 52.421 16.141 19.051.352 33.373-6.477 50.449-14.429 17.821-8.431 38.138-18.141 65.321-17.525 26.925.459 48.761 10.532 67.94 19.621 17.884 8.308 33.37 15.788 52.421 16.14 19.051.352 33.373-6.477 50.449-14.429 17.562-8.587 37.554-17.874 63.96-17.727z" fill="#EDF4FA"/><path d="M705.508 172.987l2.199 3.105c-18.533-.039-33.438 7.057-49.347 14.475-17.821 8.431-38.138 18.141-65.321 17.525-26.925-.46-48.761-10.532-67.94-19.621-17.884-8.308-33.37-15.789-52.421-16.141-19.051-.352-33.373 6.477-50.449 14.43-17.821 8.43-38.137 18.14-65.321 17.524-26.924-.459-48.598-10.743-67.94-19.62-17.883-8.308-33.369-15.789-52.421-16.141-19.051-.352-33.373 6.477-50.449 14.429-17.821 8.431-38.137 18.141-65.321 17.525-26.924-.459-48.76-10.531-67.94-19.621-16.944-8.05-32.85-15.476-51.319-16.095L0 161.757c26.341.726 47.756 10.854 66.417 19.63 17.884 8.308 33.37 15.789 52.421 16.141 19.051.352 33.373-6.477 50.449-14.429 17.821-8.431 38.137-18.141 65.321-17.525 26.924.46 48.76 10.532 67.939 19.621 17.884 8.308 33.37 15.789 52.421 16.141 19.051.352 33.373-6.478 50.449-14.43 17.821-8.431 38.138-18.14 65.321-17.525 26.925.46 48.761 10.532 67.94 19.621 17.884 8.308 33.37 15.789 52.421 16.141 19.051.352 33.373-6.477 50.449-14.43 17.562-8.587 37.554-17.873 63.96-17.726z" fill="#EDF4FA"/><path d="M705.508 190.818l2.199 3.105c-18.533-.039-33.438 7.057-49.347 14.475-17.821 8.431-38.138 18.141-65.321 17.525-26.925-.459-48.761-10.531-67.94-19.621-17.884-8.307-33.37-15.788-52.421-16.14-19.051-.352-33.373 6.477-50.449 14.429-17.821 8.431-38.137 18.141-65.321 17.525-26.924-.46-48.598-10.743-67.94-19.621-17.883-8.308-33.369-15.789-52.421-16.141-19.051-.352-33.373 6.478-50.449 14.43-17.821 8.431-38.137 18.141-65.321 17.525-26.924-.46-48.76-10.532-67.94-19.621-16.944-8.051-32.85-15.476-51.319-16.095L0 179.588c26.341.727 47.756 10.854 66.417 19.631 17.884 8.308 33.37 15.789 52.421 16.14 19.051.352 33.373-6.477 50.449-14.429 17.821-8.431 38.137-18.14 65.321-17.524 26.924.459 48.76 10.531 67.939 19.62 17.884 8.308 33.37 15.789 52.421 16.141 19.051.352 33.373-6.477 50.449-14.429 17.821-8.431 38.138-18.141 65.321-17.525 26.925.459 48.761 10.532 67.94 19.621 17.884 8.308 33.37 15.788 52.421 16.14 19.051.352 33.373-6.477 50.449-14.429 17.562-8.587 37.554-17.874 63.96-17.727z" fill="#EDF4FA"/><path d="M705.508 211.197l2.199 3.105c-18.533-.039-33.438 7.057-49.347 14.475-17.821 8.431-38.138 18.141-65.321 17.525-26.925-.459-48.761-10.532-67.94-19.621-17.884-8.308-33.37-15.788-52.421-16.14-19.051-.352-33.373 6.477-50.449 14.429-17.821 8.431-38.137 18.141-65.321 17.525-26.924-.46-48.598-10.744-67.94-19.621-17.883-8.308-33.369-15.789-52.421-16.141-19.051-.352-33.373 6.478-50.449 14.43-17.821 8.43-38.137 18.14-65.321 17.525-26.924-.46-48.76-10.532-67.94-19.621-16.944-8.051-32.85-15.476-51.319-16.095L0 199.967c26.341.727 47.756 10.854 66.417 19.631 17.884 8.308 33.37 15.788 52.421 16.14 19.051.352 33.373-6.477 50.449-14.429 17.821-8.431 38.137-18.14 65.321-17.525 26.924.46 48.76 10.532 67.939 19.621 17.884 8.308 33.37 15.789 52.421 16.141 19.051.352 33.373-6.477 50.449-14.429 17.821-8.431 38.138-18.141 65.321-17.525 26.925.459 48.761 10.532 67.94 19.621 17.884 8.307 33.37 15.788 52.421 16.14 19.051.352 33.373-6.477 50.449-14.429 17.562-8.587 37.554-17.874 63.96-17.727z" fill="#EDF4FA"/><path d="M705.508 232.85l2.199 3.105c-18.533-.04-33.438 7.056-49.347 14.475-17.821 8.43-38.138 18.14-65.321 17.525-26.925-.46-48.761-10.532-67.94-19.621-17.884-8.308-33.37-15.789-52.421-16.141-19.051-.352-33.373 6.477-50.449 14.429-17.821 8.431-38.137 18.141-65.321 17.525-26.924-.459-48.598-10.743-67.94-19.621-17.883-8.307-33.369-15.788-52.421-16.14-19.051-.352-33.373 6.477-50.449 14.429-17.821 8.431-38.137 18.141-65.321 17.525-26.924-.46-48.76-10.532-67.94-19.621-16.944-8.05-32.85-15.476-51.319-16.095L0 221.62c26.341.726 47.756 10.854 66.417 19.63 17.884 8.308 33.37 15.789 52.421 16.141 19.051.352 33.373-6.477 50.449-14.43 17.821-8.43 38.137-18.14 65.321-17.524 26.924.459 48.76 10.532 67.939 19.621 17.884 8.308 33.37 15.788 52.421 16.14 19.051.352 33.373-6.477 50.449-14.429 17.821-8.431 38.138-18.141 65.321-17.525 26.925.46 48.761 10.532 67.94 19.621 17.884 8.308 33.37 15.789 52.421 16.141 19.051.352 33.373-6.478 50.449-14.43 17.562-8.587 37.554-17.874 63.96-17.726z" fill="#EDF4FA"/><path d="M705.508 253.228l2.199 3.106c-18.533-.04-33.438 7.056-49.347 14.475-17.821 8.43-38.138 18.14-65.321 17.524-26.925-.459-48.761-10.531-67.94-19.62-17.884-8.308-33.37-15.789-52.421-16.141-19.051-.352-33.373 6.477-50.449 14.429-17.821 8.431-38.137 18.141-65.321 17.525-26.924-.46-48.598-10.743-67.94-19.621-17.883-8.308-33.369-15.788-52.421-16.14-19.051-.352-33.373 6.477-50.449 14.429-17.821 8.431-38.137 18.141-65.321 17.525-26.924-.46-48.76-10.532-67.94-19.621-16.944-8.051-32.85-15.476-51.319-16.095L0 241.998c26.341.727 47.756 10.854 66.417 19.631 17.884 8.308 33.37 15.789 52.421 16.141 19.051.352 33.373-6.478 50.449-14.43 17.821-8.43 38.137-18.14 65.321-17.524 26.924.459 48.76 10.531 67.939 19.621 17.884 8.307 33.37 15.788 52.421 16.14 19.051.352 33.373-6.477 50.449-14.429 17.821-8.431 38.138-18.141 65.321-17.525 26.925.46 48.761 10.532 67.94 19.621 17.884 8.308 33.37 15.789 52.421 16.141 19.051.352 33.373-6.478 50.449-14.43 17.562-8.587 37.554-17.874 63.96-17.727z" fill="#EDF4FA"/><path d="M705.508 271.06l2.199 3.105c-18.533-.039-33.438 7.057-49.347 14.475-17.821 8.431-38.138 18.141-65.321 17.525-26.925-.46-48.761-10.532-67.94-19.621-17.884-8.308-33.37-15.789-52.421-16.141-19.051-.352-33.373 6.477-50.449 14.43-17.821 8.43-38.137 18.14-65.321 17.525-26.924-.46-48.598-10.744-67.94-19.621-17.883-8.308-33.369-15.789-52.421-16.141-19.051-.352-33.373 6.477-50.449 14.43-17.821 8.43-38.137 18.14-65.321 17.524-26.924-.459-48.76-10.531-67.94-19.621-16.944-8.05-32.85-15.476-51.319-16.095L0 259.83c26.341.726 47.756 10.854 66.417 19.63 17.884 8.308 33.37 15.789 52.421 16.141 19.051.352 33.373-6.477 50.449-14.429 17.821-8.431 38.137-18.141 65.321-17.525 26.924.46 48.76 10.532 67.939 19.621 17.884 8.308 33.37 15.789 52.421 16.141 19.051.352 33.373-6.478 50.449-14.43 17.821-8.43 38.138-18.14 65.321-17.525 26.925.46 48.761 10.532 67.94 19.621 17.884 8.308 33.37 15.789 52.421 16.141 19.051.352 33.373-6.477 50.449-14.43 17.562-8.587 37.554-17.873 63.96-17.726z" fill="#EDF4FA"/><path d="M705.508 291.439l2.199 3.105c-18.533-.04-33.438 7.056-49.347 14.475-17.821 8.43-38.138 18.14-65.321 17.525-26.925-.46-48.761-10.532-67.94-19.621-17.884-8.308-33.37-15.789-52.421-16.141-19.051-.352-33.373 6.477-50.449 14.429-17.821 8.431-38.137 18.141-65.321 17.525-26.924-.459-48.598-10.743-67.94-19.621-17.883-8.307-33.369-15.788-52.421-16.14-19.051-.352-33.373 6.477-50.449 14.429-17.821 8.431-38.137 18.141-65.321 17.525-26.924-.459-48.76-10.532-67.94-19.621-16.944-8.05-32.85-15.476-51.319-16.095L0 280.209c26.341.726 47.756 10.854 66.417 19.63 17.884 8.308 33.37 15.789 52.421 16.141 19.051.352 33.373-6.477 50.449-14.429 17.821-8.431 38.137-18.141 65.321-17.525 26.924.459 48.76 10.532 67.939 19.621 17.884 8.308 33.37 15.788 52.421 16.14 19.051.352 33.373-6.477 50.449-14.429 17.821-8.431 38.138-18.141 65.321-17.525 26.925.46 48.761 10.532 67.94 19.621 17.884 8.308 33.37 15.789 52.421 16.141 19.051.352 33.373-6.478 50.449-14.43 17.562-8.587 37.554-17.873 63.96-17.726z" fill="#EDF4FA"/><path d="M705.508 313.091l2.199 3.105c-18.533-.039-33.438 7.057-49.347 14.475-17.821 8.431-38.138 18.141-65.321 17.525-26.925-.459-48.761-10.532-67.94-19.621-17.884-8.307-33.37-15.788-52.421-16.14-19.051-.352-33.373 6.477-50.449 14.429-17.821 8.431-38.137 18.141-65.321 17.525-26.924-.46-48.598-10.743-67.94-19.621-17.883-8.308-33.369-15.789-52.421-16.141-19.051-.352-33.373 6.478-50.449 14.43-17.821 8.431-38.137 18.14-65.321 17.525-26.924-.46-48.76-10.532-67.94-19.621-16.944-8.051-32.85-15.476-51.319-16.095L0 301.861c26.341.727 47.756 10.854 66.417 19.631 17.884 8.308 33.37 15.788 52.421 16.14 19.051.352 33.373-6.477 50.449-14.429 17.821-8.431 38.137-18.14 65.321-17.525 26.924.46 48.76 10.532 67.939 19.621 17.884 8.308 33.37 15.789 52.421 16.141 19.051.352 33.373-6.477 50.449-14.429 17.821-8.431 38.138-18.141 65.321-17.525 26.925.459 48.761 10.532 67.94 19.621 17.884 8.307 33.37 15.788 52.421 16.14 19.051.352 33.373-6.477 50.449-14.429 17.562-8.587 37.554-17.874 63.96-17.727z" fill="#EDF4FA"/><path d="M712.86 334.744l2.199 3.105c-18.533-.04-33.438 7.056-49.347 14.475-17.822 8.43-38.138 18.14-65.321 17.525-26.925-.46-48.761-10.532-67.94-19.621-17.884-8.308-33.37-15.789-52.421-16.141-19.051-.352-33.373 6.477-50.449 14.429-17.821 8.431-38.138 18.141-65.321 17.525-26.924-.459-48.599-10.743-67.94-19.621-17.884-8.307-33.37-15.788-52.421-16.14-19.051-.352-33.373 6.477-50.449 14.429-17.821 8.431-38.137 18.141-65.321 17.525-26.924-.459-48.76-10.532-67.94-19.621-16.944-8.05-32.85-15.476-51.319-16.095l-1.518-3.004c26.34.726 47.756 10.854 66.417 19.63 17.883 8.308 33.369 15.789 52.42 16.141 19.052.352 33.373-6.477 50.449-14.43 17.822-8.43 38.138-18.14 65.321-17.524 26.925.459 48.761 10.532 67.94 19.621 17.884 8.307 33.37 15.788 52.421 16.14 19.051.352 33.373-6.477 50.449-14.429 17.821-8.431 38.138-18.141 65.321-17.525 26.924.46 48.761 10.532 67.94 19.621 17.884 8.308 33.37 15.789 52.421 16.141 19.051.352 33.373-6.478 50.449-14.43 17.562-8.587 37.554-17.874 63.96-17.726z" fill="#EDF4FA"/><path d="M712.86 352.575l2.199 3.105c-18.533-.039-33.438 7.057-49.347 14.475-17.822 8.431-38.138 18.141-65.321 17.525-26.925-.459-48.761-10.532-67.94-19.621-17.884-8.308-33.37-15.788-52.421-16.14-19.051-.352-33.373 6.477-50.449 14.429-17.821 8.431-38.138 18.141-65.321 17.525-26.924-.46-48.599-10.744-67.94-19.621-17.884-8.308-33.37-15.789-52.421-16.141-19.051-.352-33.373 6.478-50.449 14.43-17.821 8.43-38.137 18.14-65.321 17.525-26.924-.46-48.76-10.532-67.94-19.621-16.944-8.051-32.85-15.476-51.319-16.095l-1.518-3.005c26.34.727 47.756 10.854 66.417 19.631 17.883 8.308 33.369 15.788 52.42 16.14 19.052.352 33.373-6.477 50.449-14.429 17.822-8.431 38.138-18.14 65.321-17.525 26.925.46 48.761 10.532 67.94 19.621 17.884 8.308 33.37 15.789 52.421 16.141 19.051.352 33.373-6.477 50.449-14.429 17.821-8.431 38.138-18.141 65.321-17.525 26.924.459 48.761 10.531 67.94 19.621 17.884 8.307 33.37 15.788 52.421 16.14 19.051.352 33.373-6.477 50.449-14.429 17.562-8.587 37.554-17.874 63.96-17.727z" fill="#EDF4FA"/><path d="M712.86 372.954l2.199 3.105c-18.533-.039-33.438 7.057-49.347 14.475-17.822 8.431-38.138 18.141-65.321 17.525-26.925-.46-48.761-10.532-67.94-19.621-17.884-8.308-33.37-15.789-52.421-16.141-19.051-.352-33.373 6.478-50.449 14.43-17.821 8.43-38.138 18.14-65.321 17.525-26.924-.46-48.599-10.744-67.94-19.621-17.884-8.308-33.37-15.789-52.421-16.141-19.051-.352-33.373 6.477-50.449 14.43-17.821 8.43-38.137 18.14-65.321 17.524-26.924-.459-48.76-10.531-67.94-19.62-16.944-8.051-32.85-15.477-51.319-16.096l-1.518-3.004c26.34.726 47.756 10.854 66.417 19.631 17.883 8.307 33.369 15.788 52.42 16.14 19.052.352 33.373-6.477 50.449-14.429 17.822-8.431 38.138-18.141 65.321-17.525 26.925.46 48.761 10.532 67.94 19.621 17.884 8.308 33.37 15.789 52.421 16.141 19.051.352 33.373-6.477 50.449-14.43 17.821-8.43 38.138-18.14 65.321-17.525 26.924.46 48.761 10.532 67.94 19.621 17.884 8.308 33.37 15.789 52.421 16.141 19.051.352 33.373-6.477 50.449-14.429 17.562-8.587 37.554-17.874 63.96-17.727z" fill="#EDF4FA"/><path d="M712.86 394.606l2.199 3.106c-18.533-.04-33.438 7.056-49.347 14.475-17.822 8.43-38.138 18.14-65.321 17.524-26.925-.459-48.761-10.531-67.94-19.62-17.884-8.308-33.37-15.789-52.421-16.141-19.051-.352-33.373 6.477-50.449 14.429-17.821 8.431-38.138 18.141-65.321 17.525-26.924-.46-48.599-10.743-67.94-19.621-17.884-8.308-33.37-15.788-52.421-16.14-19.051-.352-33.373 6.477-50.449 14.429-17.821 8.431-38.137 18.141-65.321 17.525-26.924-.46-48.76-10.532-67.94-19.621C43.245 394.425 27.34 387 8.87 386.381l-1.518-3.005c26.34.727 47.756 10.854 66.417 19.631 17.883 8.308 33.369 15.789 52.42 16.141 19.052.352 33.373-6.478 50.449-14.43 17.822-8.43 38.138-18.14 65.321-17.524 26.925.459 48.761 10.531 67.94 19.621 17.884 8.307 33.37 15.788 52.421 16.14 19.051.352 33.373-6.477 50.449-14.429 17.821-8.431 38.138-18.141 65.321-17.525 26.924.46 48.761 10.532 67.94 19.621 17.884 8.308 33.37 15.789 52.421 16.141 19.051.352 33.373-6.478 50.449-14.43 17.562-8.587 37.554-17.874 63.96-17.727z" fill="#EDF4FA"/><path d="M708.449 414.985l2.199 3.105c-18.533-.039-33.438 7.057-49.347 14.475-17.821 8.431-38.138 18.141-65.321 17.525-26.925-.459-48.761-10.532-67.94-19.621-17.884-8.307-33.37-15.788-52.421-16.14-19.051-.352-33.373 6.477-50.449 14.429-17.821 8.431-38.137 18.141-65.321 17.525-26.924-.46-48.598-10.743-67.94-19.621-17.883-8.308-33.369-15.789-52.421-16.141-19.051-.352-33.373 6.478-50.449 14.43-17.821 8.431-38.137 18.141-65.321 17.525-26.924-.46-48.76-10.532-67.94-19.621-16.944-8.051-32.85-15.476-51.319-16.095l-1.518-3.005c26.341.727 47.756 10.854 66.417 19.631 17.884 8.308 33.369 15.788 52.421 16.14 19.051.352 33.373-6.477 50.449-14.429 17.821-8.431 38.137-18.14 65.321-17.525 26.924.46 48.76 10.532 67.939 19.621 17.884 8.308 33.37 15.789 52.421 16.141 19.051.352 33.373-6.477 50.449-14.429 17.821-8.431 38.138-18.141 65.321-17.525 26.925.459 48.761 10.532 67.94 19.621 17.884 8.307 33.37 15.788 52.421 16.14 19.051.352 33.373-6.477 50.449-14.429 17.562-8.587 37.554-17.874 63.96-17.727z" fill="#EDF4FA"/><path d="M708.449 435.364l2.199 3.105c-18.533-.039-33.438 7.057-49.347 14.475-17.821 8.431-38.138 18.141-65.321 17.525-26.925-.46-48.761-10.532-67.94-19.621-17.884-8.308-33.37-15.789-52.421-16.141-19.051-.352-33.373 6.478-50.449 14.43-17.821 8.431-38.137 18.141-65.321 17.525-26.924-.46-48.598-10.744-67.94-19.621-17.883-8.308-33.369-15.789-52.421-16.141-19.051-.352-33.373 6.477-50.449 14.43-17.821 8.43-38.137 18.14-65.321 17.524-26.924-.459-48.76-10.531-67.94-19.62-16.944-8.051-32.85-15.477-51.319-16.095l-1.518-3.005c26.341.726 47.756 10.854 66.417 19.631 17.884 8.307 33.369 15.788 52.421 16.14 19.051.352 33.373-6.477 50.449-14.429 17.821-8.431 38.137-18.141 65.321-17.525 26.924.46 48.76 10.532 67.939 19.621 17.884 8.308 33.37 15.789 52.421 16.141 19.051.352 33.373-6.477 50.449-14.43 17.821-8.43 38.138-18.14 65.321-17.524 26.925.459 48.761 10.531 67.94 19.62 17.884 8.308 33.37 15.789 52.421 16.141 19.051.352 33.373-6.477 50.449-14.429 17.562-8.587 37.554-17.874 63.96-17.727z" fill="#EDF4FA"/><path d="M708.449 457.016l2.199 3.106c-18.533-.04-33.438 7.056-49.347 14.475-17.821 8.43-38.138 18.14-65.321 17.524-26.925-.459-48.761-10.531-67.94-19.62-17.884-8.308-33.37-15.789-52.421-16.141-19.051-.352-33.373 6.477-50.449 14.429-17.821 8.431-38.137 18.141-65.321 17.525-26.924-.459-48.598-10.743-67.94-19.621-17.883-8.307-33.369-15.788-52.421-16.14-19.051-.352-33.373 6.477-50.449 14.429-17.821 8.431-38.137 18.141-65.321 17.525-26.924-.46-48.76-10.532-67.94-19.621-16.944-8.05-32.85-15.476-51.319-16.095l-1.518-3.005c26.341.727 47.756 10.855 66.417 19.631 17.884 8.308 33.369 15.789 52.421 16.141 19.051.352 33.373-6.477 50.449-14.43 17.821-8.43 38.137-18.14 65.321-17.524 26.924.459 48.76 10.532 67.939 19.621 17.884 8.307 33.37 15.788 52.421 16.14 19.051.352 33.373-6.477 50.449-14.429 17.821-8.431 38.138-18.141 65.321-17.525 26.925.46 48.761 10.532 67.94 19.621 17.884 8.308 33.37 15.789 52.421 16.141 19.051.352 33.373-6.478 50.449-14.43 17.562-8.587 37.554-17.874 63.96-17.727z" fill="#EDF4FA"/><path d="M715.801 478.669l2.199 3.105c-18.533-.039-33.438 7.057-49.347 14.475-17.822 8.431-38.138 18.141-65.321 17.525-26.925-.46-48.761-10.532-67.94-19.621-17.884-8.308-33.37-15.789-52.421-16.141-19.051-.352-33.373 6.478-50.449 14.43-17.821 8.431-38.138 18.141-65.321 17.525-26.924-.46-48.599-10.744-67.94-19.621-17.884-8.308-33.37-15.789-52.421-16.141-19.051-.352-33.373 6.477-50.449 14.43-17.821 8.43-38.137 18.14-65.321 17.524-26.924-.459-48.76-10.531-67.94-19.62-16.944-8.051-32.85-15.477-51.319-16.095l-1.518-3.005c26.34.726 47.756 10.854 66.417 19.631 17.883 8.307 33.369 15.788 52.42 16.14 19.052.352 33.373-6.477 50.449-14.429 17.822-8.431 38.138-18.141 65.321-17.525 26.925.46 48.761 10.532 67.94 19.621 17.884 8.308 33.37 15.789 52.421 16.141 19.051.352 33.373-6.477 50.449-14.43 17.821-8.43 38.138-18.14 65.321-17.524 26.924.459 48.761 10.531 67.94 19.62 17.883 8.308 33.37 15.789 52.421 16.141 19.051.352 33.373-6.477 50.449-14.429 17.562-8.587 37.554-17.874 63.96-17.727z" fill="#EDF4FA"/><path d="M715.801 496.5l2.199 3.106c-18.533-.04-33.438 7.056-49.347 14.475-17.822 8.43-38.138 18.14-65.321 17.524-26.925-.459-48.761-10.531-67.94-19.62-17.884-8.308-33.37-15.789-52.421-16.141-19.051-.352-33.373 6.477-50.449 14.429-17.821 8.431-38.138 18.141-65.321 17.525-26.924-.459-48.599-10.743-67.94-19.621-17.884-8.308-33.37-15.788-52.421-16.14-19.051-.352-33.373 6.477-50.449 14.429-17.821 8.431-38.137 18.141-65.321 17.525-26.924-.46-48.76-10.532-67.94-19.621-16.944-8.051-32.85-15.476-51.319-16.095l-1.518-3.005c26.34.727 47.756 10.855 66.417 19.631 17.883 8.308 33.369 15.789 52.42 16.141 19.052.352 33.373-6.477 50.449-14.43 17.822-8.43 38.138-18.14 65.321-17.524 26.925.459 48.761 10.531 67.94 19.621 17.884 8.307 33.37 15.788 52.421 16.14 19.051.352 33.373-6.477 50.449-14.429 17.821-8.431 38.138-18.141 65.321-17.525 26.924.46 48.761 10.532 67.94 19.621 17.883 8.308 33.37 15.789 52.421 16.141 19.051.352 33.373-6.478 50.449-14.43 17.562-8.587 37.554-17.874 63.96-17.727z" fill="#EDF4FA"/><path d="M715.801 516.879l2.199 3.105c-18.533-.039-33.438 7.057-49.347 14.475-17.822 8.431-38.138 18.141-65.321 17.525-26.925-.459-48.761-10.532-67.94-19.621-17.884-8.307-33.37-15.788-52.421-16.14-19.051-.352-33.373 6.477-50.449 14.429-17.821 8.431-38.138 18.141-65.321 17.525-26.924-.46-48.599-10.743-67.94-19.621-17.884-8.308-33.37-15.789-52.421-16.141-19.051-.352-33.373 6.478-50.449 14.43-17.821 8.431-38.137 18.141-65.321 17.525-26.924-.46-48.76-10.532-67.94-19.621-16.944-8.051-32.85-15.476-51.319-16.095l-1.518-3.005c26.34.727 47.756 10.854 66.417 19.631 17.883 8.308 33.369 15.788 52.42 16.14 19.052.352 33.373-6.477 50.449-14.429 17.822-8.431 38.138-18.14 65.321-17.525 26.925.46 48.761 10.532 67.94 19.621 17.884 8.308 33.37 15.789 52.421 16.141 19.051.352 33.373-6.477 50.449-14.429 17.821-8.431 38.138-18.141 65.321-17.525 26.924.459 48.761 10.532 67.94 19.621 17.883 8.308 33.37 15.788 52.421 16.14 19.051.352 33.373-6.477 50.449-14.429 17.562-8.587 37.554-17.874 63.96-17.727z" fill="#EDF4FA"/><path d="M715.801 538.532l2.199 3.105c-18.533-.04-33.438 7.056-49.347 14.475-17.822 8.431-38.138 18.141-65.321 17.525-26.925-.46-48.761-10.532-67.94-19.621-17.884-8.308-33.37-15.789-52.421-16.141-19.051-.352-33.373 6.477-50.449 14.43-17.821 8.43-38.138 18.14-65.321 17.524-26.924-.459-48.599-10.743-67.94-19.62-17.884-8.308-33.37-15.789-52.421-16.141-19.051-.352-33.373 6.477-50.449 14.429-17.821 8.431-38.137 18.141-65.321 17.525-26.924-.459-48.76-10.532-67.94-19.621-16.944-8.05-32.85-15.476-51.319-16.095l-1.518-3.004c26.34.726 47.756 10.854 66.417 19.63 17.883 8.308 33.369 15.789 52.42 16.141 19.052.352 33.373-6.477 50.449-14.429 17.822-8.431 38.138-18.141 65.321-17.525 26.925.459 48.761 10.532 67.94 19.621 17.884 8.308 33.37 15.789 52.421 16.14 19.051.352 33.373-6.477 50.449-14.429 17.821-8.431 38.138-18.141 65.321-17.525 26.924.46 48.761 10.532 67.94 19.621 17.883 8.308 33.37 15.789 52.421 16.141 19.051.352 33.373-6.477 50.449-14.43 17.562-8.587 37.554-17.873 63.96-17.726z" fill="#EDF4FA"/><path d="M712.86 558.91l2.199 3.106c-18.533-.04-33.438 7.056-49.347 14.475-17.822 8.43-38.138 18.14-65.321 17.525-26.925-.46-48.761-10.532-67.94-19.621-17.884-8.308-33.37-15.789-52.421-16.141-19.051-.352-33.373 6.477-50.449 14.429-17.821 8.431-38.138 18.141-65.321 17.525-26.924-.459-48.599-10.743-67.94-19.621-17.884-8.307-33.37-15.788-52.421-16.14-19.051-.352-33.373 6.477-50.449 14.429-17.821 8.431-38.137 18.141-65.321 17.525-26.924-.46-48.76-10.532-67.94-19.621-16.944-8.05-32.85-15.476-51.319-16.095l-1.518-3.004c26.34.726 47.756 10.854 66.417 19.63 17.883 8.308 33.369 15.789 52.42 16.141 19.052.352 33.373-6.477 50.449-14.43 17.822-8.43 38.138-18.14 65.321-17.524 26.925.459 48.761 10.532 67.94 19.621 17.884 8.307 33.37 15.788 52.421 16.14 19.051.352 33.373-6.477 50.449-14.429 17.821-8.431 38.138-18.141 65.321-17.525 26.924.46 48.761 10.532 67.94 19.621 17.884 8.308 33.37 15.789 52.421 16.141 19.051.352 33.373-6.478 50.449-14.43 17.562-8.587 37.554-17.874 63.96-17.727z" fill="#EDF4FA"/><path d="M712.86 579.289l2.199 3.106c-18.533-.04-33.438 7.056-49.347 14.475-17.822 8.43-38.138 18.14-65.321 17.524-26.925-.459-48.761-10.531-67.94-19.621-17.884-8.307-33.37-15.788-52.421-16.14-19.051-.352-33.373 6.477-50.449 14.429-17.821 8.431-38.138 18.141-65.321 17.525-26.924-.46-48.599-10.743-67.94-19.621-17.884-8.308-33.37-15.789-52.421-16.14-19.051-.352-33.373 6.477-50.449 14.429-17.821 8.431-38.137 18.141-65.321 17.525-26.924-.46-48.76-10.532-67.94-19.621-16.944-8.051-32.85-15.476-51.319-16.095l-1.518-3.005c26.34.727 47.756 10.854 66.417 19.631 17.883 8.308 33.369 15.789 52.42 16.141 19.052.352 33.373-6.478 50.449-14.43 17.822-8.43 38.138-18.14 65.321-17.524 26.925.459 48.761 10.531 67.94 19.62 17.884 8.308 33.37 15.789 52.421 16.141 19.051.352 33.373-6.477 50.449-14.429 17.821-8.431 38.138-18.141 65.321-17.525 26.924.459 48.761 10.532 67.94 19.621 17.884 8.308 33.37 15.789 52.421 16.14 19.051.352 33.373-6.477 50.449-14.429 17.562-8.587 37.554-17.874 63.96-17.727z" fill="#EDF4FA"/><path d="M712.86 600.942l2.199 3.105c-18.533-.039-33.438 7.057-49.347 14.475-17.822 8.431-38.138 18.141-65.321 17.525-26.925-.46-48.761-10.532-67.94-19.621-17.884-8.308-33.37-15.789-52.421-16.141-19.051-.352-33.373 6.477-50.449 14.43-17.821 8.43-38.138 18.14-65.321 17.525-26.924-.46-48.599-10.744-67.94-19.621-17.884-8.308-33.37-15.789-52.421-16.141-19.051-.352-33.373 6.477-50.449 14.429-17.821 8.431-38.137 18.141-65.321 17.525-26.924-.459-48.76-10.531-67.94-19.62-16.944-8.051-32.85-15.477-51.319-16.096l-1.518-3.004c26.34.726 47.756 10.854 66.417 19.63 17.883 8.308 33.369 15.789 52.42 16.141 19.052.352 33.373-6.477 50.449-14.429 17.822-8.431 38.138-18.141 65.321-17.525 26.925.46 48.761 10.532 67.94 19.621 17.884 8.308 33.37 15.789 52.421 16.141 19.051.352 33.373-6.478 50.449-14.43 17.821-8.431 38.138-18.14 65.321-17.525 26.924.46 48.761 10.532 67.94 19.621 17.884 8.308 33.37 15.789 52.421 16.141 19.051.352 33.373-6.477 50.449-14.43 17.562-8.587 37.554-17.873 63.96-17.726z" fill="#EDF4FA"/><path d="M708.449 621.321l2.199 3.105c-18.533-.04-33.438 7.056-49.347 14.475-17.821 8.431-38.138 18.141-65.321 17.525-26.925-.46-48.761-10.532-67.94-19.621-17.884-8.308-33.37-15.789-52.421-16.141-19.051-.352-33.373 6.477-50.449 14.43-17.821 8.43-38.137 18.14-65.321 17.524-26.924-.459-48.598-10.743-67.94-19.621-17.883-8.307-33.369-15.788-52.421-16.14-19.051-.352-33.373 6.477-50.449 14.429-17.821 8.431-38.137 18.141-65.321 17.525-26.924-.459-48.76-10.532-67.94-19.621-16.944-8.05-32.85-15.476-51.319-16.095l-1.518-3.004c26.341.726 47.756 10.854 66.417 19.63 17.884 8.308 33.369 15.789 52.421 16.141 19.051.352 33.373-6.477 50.449-14.429 17.821-8.431 38.137-18.141 65.321-17.525 26.924.459 48.76 10.532 67.939 19.621 17.884 8.308 33.37 15.789 52.421 16.14 19.051.352 33.373-6.477 50.449-14.429 17.821-8.431 38.138-18.141 65.321-17.525 26.925.46 48.761 10.532 67.94 19.621 17.884 8.308 33.37 15.789 52.421 16.141 19.051.352 33.373-6.477 50.449-14.43 17.562-8.587 37.554-17.873 63.96-17.726z" fill="#EDF4FA"/><path d="M708.449 641.699l2.199 3.106c-18.533-.04-33.438 7.056-49.347 14.475-17.821 8.43-38.138 18.14-65.321 17.524-26.925-.459-48.761-10.531-67.94-19.62-17.884-8.308-33.37-15.789-52.421-16.141-19.051-.352-33.373 6.477-50.449 14.429-17.821 8.431-38.137 18.141-65.321 17.525-26.924-.459-48.598-10.743-67.94-19.621-17.883-8.308-33.369-15.788-52.421-16.14-19.051-.352-33.373 6.477-50.449 14.429-17.821 8.431-38.137 18.141-65.321 17.525-26.924-.46-48.76-10.532-67.94-19.621-16.944-8.051-32.85-15.476-51.319-16.095l-1.518-3.005c26.341.727 47.756 10.855 66.417 19.631 17.884 8.308 33.369 15.789 52.421 16.141 19.051.352 33.373-6.477 50.449-14.43 17.821-8.43 38.137-18.14 65.321-17.524 26.924.459 48.76 10.532 67.939 19.621 17.884 8.307 33.37 15.788 52.421 16.14 19.051.352 33.373-6.477 50.449-14.429 17.821-8.431 38.138-18.141 65.321-17.525 26.925.46 48.761 10.532 67.94 19.621 17.884 8.308 33.37 15.789 52.421 16.141 19.051.352 33.373-6.478 50.449-14.43 17.562-8.587 37.554-17.874 63.96-17.727z" fill="#EDF4FA"/><path d="M708.449 663.352l2.199 3.105c-18.533-.039-33.438 7.057-49.347 14.475-17.821 8.431-38.138 18.141-65.321 17.525-26.925-.46-48.761-10.532-67.94-19.621-17.884-8.308-33.37-15.789-52.421-16.141-19.051-.352-33.373 6.478-50.449 14.43-17.821 8.43-38.137 18.141-65.321 17.525-26.924-.46-48.598-10.744-67.94-19.621-17.883-8.308-33.369-15.789-52.421-16.141-19.051-.352-33.373 6.477-50.449 14.43-17.821 8.43-38.137 18.14-65.321 17.524-26.924-.459-48.76-10.531-67.94-19.62-16.944-8.051-32.85-15.477-51.319-16.095l-1.518-3.005c26.341.726 47.756 10.854 66.417 19.631 17.884 8.307 33.369 15.788 52.421 16.14 19.051.352 33.373-6.477 50.449-14.429 17.821-8.431 38.137-18.141 65.321-17.525 26.924.46 48.76 10.532 67.939 19.621 17.884 8.308 33.37 15.789 52.421 16.141 19.051.352 33.373-6.477 50.449-14.43 17.821-8.43 38.138-18.14 65.321-17.525 26.925.46 48.761 10.532 67.94 19.621 17.884 8.308 33.37 15.789 52.421 16.141 19.051.352 33.373-6.477 50.449-14.429 17.562-8.587 37.554-17.874 63.96-17.727z" fill="#EDF4FA"/><path d="M715.801 685.004L718 688.11c-18.533-.04-33.438 7.056-49.347 14.475-17.822 8.43-38.138 18.14-65.321 17.524-26.925-.459-48.761-10.531-67.94-19.62-17.884-8.308-33.37-15.789-52.421-16.141-19.051-.352-33.373 6.477-50.449 14.429-17.821 8.431-38.138 18.141-65.321 17.525-26.924-.459-48.599-10.743-67.94-19.621-17.884-8.308-33.37-15.788-52.421-16.14-19.051-.352-33.373 6.477-50.449 14.429-17.821 8.431-38.137 18.141-65.321 17.525-26.924-.46-48.76-10.532-67.94-19.621-16.944-8.051-32.85-15.476-51.319-16.095l-1.518-3.005c26.34.727 47.756 10.855 66.417 19.631 17.883 8.308 33.369 15.789 52.42 16.141 19.052.352 33.373-6.477 50.449-14.43 17.822-8.43 38.138-18.14 65.321-17.524 26.925.459 48.761 10.531 67.94 19.621 17.884 8.307 33.37 15.788 52.421 16.14 19.051.352 33.373-6.477 50.449-14.429 17.821-8.431 38.138-18.141 65.321-17.525 26.924.46 48.761 10.532 67.94 19.621 17.883 8.308 33.37 15.789 52.421 16.141 19.051.352 33.373-6.478 50.449-14.43 17.562-8.587 37.554-17.874 63.96-17.727z" fill="#EDF4FA"/><path d="M715.801 702.836l2.199 3.105c-18.533-.039-33.438 7.057-49.347 14.475-17.822 8.431-38.138 18.141-65.321 17.525-26.925-.46-48.761-10.532-67.94-19.621-17.884-8.308-33.37-15.789-52.421-16.141-19.051-.352-33.373 6.477-50.449 14.43-17.821 8.43-38.138 18.14-65.321 17.525-26.924-.46-48.599-10.744-67.94-19.621-17.884-8.308-33.37-15.789-52.421-16.141-19.051-.352-33.373 6.477-50.449 14.43-17.821 8.43-38.137 18.14-65.321 17.524-26.924-.459-48.76-10.531-67.94-19.62-16.944-8.051-32.85-15.477-51.319-16.096l-1.518-3.004c26.34.726 47.756 10.854 66.417 19.631 17.883 8.307 33.369 15.788 52.42 16.14 19.052.352 33.373-6.477 50.449-14.429 17.822-8.431 38.138-18.141 65.321-17.525 26.925.46 48.761 10.532 67.94 19.621 17.884 8.308 33.37 15.789 52.421 16.141 19.051.352 33.373-6.478 50.449-14.43 17.821-8.43 38.138-18.14 65.321-17.525 26.924.46 48.761 10.532 67.94 19.621 17.883 8.308 33.37 15.789 52.421 16.141 19.051.352 33.373-6.477 50.449-14.43 17.562-8.586 37.554-17.873 63.96-17.726z" fill="#EDF4FA"/><path d="M715.801 723.215L718 726.32c-18.533-.04-33.438 7.056-49.347 14.475-17.822 8.431-38.138 18.14-65.321 17.525-26.925-.46-48.761-10.532-67.94-19.621-17.884-8.308-33.37-15.789-52.421-16.141-19.051-.352-33.373 6.477-50.449 14.429-17.821 8.431-38.138 18.141-65.321 17.525-26.924-.459-48.599-10.743-67.94-19.62-17.884-8.308-33.37-15.789-52.421-16.141-19.051-.352-33.373 6.477-50.449 14.429-17.821 8.431-38.137 18.141-65.321 17.525-26.924-.459-48.76-10.532-67.94-19.621-16.944-8.05-32.85-15.476-51.319-16.095l-1.518-3.004c26.34.726 47.756 10.854 66.417 19.63 17.883 8.308 33.369 15.789 52.42 16.141 19.052.352 33.373-6.477 50.449-14.429 17.822-8.431 38.138-18.141 65.321-17.525 26.925.459 48.761 10.532 67.94 19.621 17.884 8.308 33.37 15.788 52.421 16.14 19.051.352 33.373-6.477 50.449-14.429 17.821-8.431 38.138-18.141 65.321-17.525 26.924.46 48.761 10.532 67.94 19.621 17.883 8.308 33.37 15.789 52.421 16.141 19.051.352 33.373-6.478 50.449-14.43 17.562-8.587 37.554-17.873 63.96-17.726z" fill="#EDF4FA"/><path d="M715.801 744.867l2.199 3.105c-18.533-.039-33.438 7.057-49.347 14.475-17.822 8.431-38.138 18.141-65.321 17.525-26.925-.459-48.761-10.532-67.94-19.621-17.884-8.307-33.37-15.788-52.421-16.14-19.051-.352-33.373 6.477-50.449 14.429-17.821 8.431-38.138 18.141-65.321 17.525-26.924-.46-48.599-10.743-67.94-19.621-17.884-8.308-33.37-15.789-52.421-16.141-19.051-.352-33.373 6.478-50.449 14.43-17.821 8.43-38.137 18.14-65.321 17.525-26.924-.46-48.76-10.532-67.94-19.621-16.944-8.051-32.85-15.476-51.319-16.095l-1.518-3.005c26.34.727 47.756 10.854 66.417 19.631 17.883 8.308 33.369 15.788 52.42 16.14 19.052.352 33.373-6.477 50.449-14.429 17.822-8.431 38.138-18.14 65.321-17.525 26.925.46 48.761 10.532 67.94 19.621 17.884 8.308 33.37 15.789 52.421 16.141 19.051.352 33.373-6.477 50.449-14.429 17.821-8.431 38.138-18.141 65.321-17.525 26.924.459 48.761 10.532 67.94 19.621 17.883 8.307 33.37 15.788 52.421 16.14 19.051.352 33.373-6.477 50.449-14.429 17.562-8.587 37.554-17.874 63.96-17.727z" fill="#EDF4FA"/></svg>