<svg width="42" height="47" fill="none" xmlns="http://www.w3.org/2000/svg"><path d="M20.662 46.881a.97.97 0 01-.314-.052C2.691 40.77.771 34.234.185 26.935-.107 23.3.011 16.97.106 11.887c.04-2.142.076-4.074.076-5.502a.969.969 0 011.1-.96c1.576.22 3.124.33 4.6.33 8.949 0 13.3-4.048 14.082-4.858a.972.972 0 011.396 0c.779.812 5.126 4.858 14.081 4.858a33.4 33.4 0 004.599-.33.969.969 0 011.1.96c0 1.428.038 3.358.076 5.502.095 5.083.214 11.413-.08 15.048-.584 7.3-2.505 13.838-20.16 19.894a.961.961 0 01-.314.052zM2.114 7.481a489.537 489.537 0 01-.07 4.443c-.095 5.042-.211 11.317.072 14.856.546 6.8 2.265 12.458 18.546 18.107C36.943 39.237 38.66 33.58 39.207 26.78c.283-3.539.166-9.814.071-14.856a491.47 491.47 0 01-.07-4.442 34.518 34.518 0 01-3.767.211c-8.207 0-12.872-3.118-14.779-4.79-1.91 1.672-6.577 4.79-14.779 4.79-1.219 0-2.484-.072-3.77-.211z" fill="#405EAA"/><path d="M20.662 40.098a.97.97 0 01-.314-.053C7.924 35.784 6.57 31.155 6.154 25.982c-.203-2.54-.122-6.938-.056-10.473.03-1.485.053-2.826.053-3.816a.969.969 0 011.1-.96 23.16 23.16 0 003.151.227c6.095 0 9.033-2.734 9.563-3.28.366-.38 1.029-.38 1.397 0 .527.548 3.467 3.28 9.56 3.28 1.01 0 2.07-.077 3.151-.227a.968.968 0 011.1.96c0 .99.026 2.327.053 3.814.066 3.535.15 7.936-.056 10.473-.415 5.172-1.77 9.802-14.192 14.064a.934.934 0 01-.316.054zM8.081 12.782c-.01.814-.027 1.754-.045 2.762-.064 3.492-.145 7.84.049 10.28.306 3.805.653 8.115 12.577 12.278 11.923-4.163 12.27-8.471 12.576-12.277.197-2.442.116-6.79.048-10.283a295.94 295.94 0 01-.044-2.762 23.73 23.73 0 01-2.322.116c-5.523.002-8.79-2.013-10.258-3.23-1.467 1.217-4.732 3.23-10.26 3.23a23.28 23.28 0 01-2.321-.114z" fill="#405EAA"/></svg>