<svg width="40" height="45" fill="none" xmlns="http://www.w3.org/2000/svg"><path d="M15.144 25.247c-.01-.009-1.175-1.027-1.56-4.031a.95.95 0 00-.998-.83c-.359-.334-.886-1.613-.92-2.153a.954.954 0 10-1.904.12c.052.849.734 2.903 1.793 3.645.078.055.16.102.24.143.424 2.4 1.3 3.685 1.81 4.256l-.03 2.789c-.595.296-1.855.89-4.252 1.893-3.828 1.584-6.85 2.835-8.218 4.968-1.159 1.8-1.118 6.86-1.099 7.856.011.52.436.935.954.935h.02a.954.954 0 00.934-.973c-.045-2.236.172-5.818.796-6.786.995-1.552 3.438-2.62 7.346-4.238 3.862-1.617 4.86-2.198 4.96-2.26a.954.954 0 00.461-.806l.04-3.761a.952.952 0 00-.373-.767zM39.098 36.05c-1.089-1.703-3.818-2.757-6.976-3.977-.82-.318-1.67-.646-2.508-.992-2.4-1.005-3.66-1.6-4.254-1.895l-.028-2.79c.509-.57 1.383-1.854 1.808-4.255.086-.042.17-.093.252-.151 1.027-.73 1.739-2.777 1.783-3.648a.954.954 0 00-.905-1 .963.963 0 00-1 .904c-.027.519-.561 1.807-.92 2.14a.957.957 0 00-.999.83c-.388 3.01-1.56 4.033-1.56 4.033a.954.954 0 00-.37.764l.037 3.762a.95.95 0 00.46.806c.1.061 1.098.643 4.963 2.261.862.357 1.721.69 2.553 1.01 2.728 1.054 5.304 2.05 6.058 3.228.61.95.677 4.514.528 6.74a.954.954 0 00.887 1.016l.066.001a.953.953 0 00.95-.89c.068-1 .343-6.081-.825-7.898zM8.688 15.574a.954.954 0 00.954-.954c0-.537.15-.694.419-.979.288-.303.72-.76.72-1.56 0-.961.05-1.429.107-1.97l.04-.392c.25-2.576 2.346-5.214 5.636-6.221-.836 1.664-1.268 3.594-1.268 5.285a.954.954 0 001.908 0c0-1.866.64-4.16 1.848-5.699.14-.005.276-.018.417-.018 4.945 0 8.226 3.382 8.541 6.652l.006.06c.059.61.148 1.532.148 2.606 0 .614.33 1.011.579 1.282H15.235a.954.954 0 000 1.908h14.909a.954.954 0 00.954-.954c0-1.22-.566-1.83-.904-2.195a4.112 4.112 0 01-.122-.135 27.899 27.899 0 00-.158-2.695l-.005-.06c-.363-3.762-3.75-7.632-8.931-8.274a.946.946 0 00-.06-.758.953.953 0 00-1.292-.388 6.265 6.265 0 00-1.479 1.121c-5.282.57-8.748 4.49-9.119 8.299l-.038.377c-.06.57-.116 1.108-.116 2.186-.018.04-.127.156-.199.232-.35.371-.94.993-.94 2.29 0 .527.427.954.953.954z" fill="#405EAA"/></svg>