<svg width="56" height="46" fill="none" xmlns="http://www.w3.org/2000/svg"><path d="M19 13.556c5.131 0 9-1.96 9-4.556 0-2.597-3.869-4.556-9-4.556S10 6.403 10 9s3.869 4.556 9 4.556zm0-7.112c4.273 0 7 1.514 7 2.556s-2.727 2.556-7 2.556S12 10.042 12 9s2.727-2.556 7-2.556z" fill="#405EAA"/><path d="M55 20H38V9c0-5.047-8.346-9-19-9S0 3.953 0 9v28c0 5.047 8.346 9 19 9h36a1 1 0 001-1V21a1 1 0 00-1-1zm-36 0c-5.692 0-10.336-1.135-13.324-2.726a.975.975 0 00-.36-.208c-2.081-1.191-3.267-2.608-3.307-3.993C5.098 16.017 11.463 18 19 18c7.545 0 13.914-1.987 17-4.936V20H19zm0-18c10.169 0 17 3.619 17 7s-6.831 7-17 7S2 12.381 2 9s6.831-7 17-7zM2 37V17.064a11.598 11.598 0 002 1.51V23a1 1 0 102 0v-3.395c1.2.529 2.539.988 4.008 1.354 0 .015-.008.027-.008.041v10a1 1 0 102 0v-9.618c.964.176 1.962.322 3 .423V25a1 1 0 102 0v-3.048c.656.031 1.323.048 2 .048h1v9a1 1 0 102 0v-9h3v3a1 1 0 102 0v-3h3v9a1 1 0 102 0v-9h3v3a1 1 0 102 0v-3h3v9a1 1 0 102 0v-9h7v22H19C8.831 44 2 40.381 2 37zm49 7V22h3v22h-3z" fill="#405EAA"/></svg>