<svg width="67" height="47" fill="none" xmlns="http://www.w3.org/2000/svg"><path d="M65.883.1H1.117A1.117 1.117 0 000 1.217v44.666A1.117 1.117 0 001.117 47h64.766A1.116 1.116 0 0067 45.883V1.217A1.116 1.116 0 0065.883.1zm-1.116 44.667H2.233V2.333h62.534v42.434z" fill="#405EAA"/><path d="M49.133 41.417a1.117 1.117 0 001.616 1.005l3.968-1.99 3.967 1.99a1.117 1.117 0 001.616-1.005v-7.955a7.817 7.817 0 10-11.167 0v7.955zm8.934-1.813l-2.851-1.425a1.116 1.116 0 00-.998 0l-2.851 1.431v-4.534c.046.023.094.037.14.057.195.088.392.17.593.243l.151.049a7.641 7.641 0 004.928 0l.155-.052c.199-.071.394-.151.586-.239.048-.02.1-.036.147-.059v4.53zm-3.35-17.17a5.573 5.573 0 013.726 9.727l-.009.009a5.694 5.694 0 01-5.695 1.037 5.298 5.298 0 01-1.744-1.046 5.573 5.573 0 013.722-9.728zM18.983 9.033h29.034a1.117 1.117 0 000-2.233H18.983a1.117 1.117 0 000 2.233zm0 10.05A1.117 1.117 0 0020.1 20.2h26.8a1.116 1.116 0 100-2.233H20.1a1.117 1.117 0 00-1.117 1.116zm22.334-4.466a1.117 1.117 0 000-2.234H25.683a1.117 1.117 0 000 2.234h15.634zm-33.5 21.216h13.4a1.117 1.117 0 100-2.233h-13.4a1.116 1.116 0 100 2.233zm10.05 2.234h-6.7a1.117 1.117 0 100 2.233h6.7a1.117 1.117 0 000-2.233z" fill="#405EAA"/></svg>