<svg width="273" height="55" fill="none" xmlns="http://www.w3.org/2000/svg"><path d="M27.655 5.978H0v24.088L27.655 5.978zm-.253 47.971H55.04V29.86L27.402 53.949z" fill="#405EAA"/><path d="M0 53.949h20.535L55.04 23.875V5.978H34.522L0 36.051V53.95z" fill="#D4D7D8"/><path d="M86.31 33.131c-2.648-2.347-3.972-5.706-3.972-10.078V5.978h6.396v16.855c0 5.868 2.945 8.904 8.836 8.904s8.769-2.933 8.769-8.904V5.978h6.295v17.075c0 4.372-1.33 7.73-3.989 10.078-1.485 1.222-3.241 2.166-5.16 2.774-1.919.608-3.96.867-5.999.761a17.093 17.093 0 01-6.006-.765 15.563 15.563 0 01-5.17-2.77zm66.67-27.153v30.255h-5.32L128.519 15.69v20.542h-6.364V5.978h5.303l19.124 20.541V5.979h6.398zm9.887 0h6.448v30.255h-6.448V5.978zm23.178 28.707c-2.751-1.264-5.048-3.166-6.638-5.495-1.561-2.395-2.347-5.114-2.273-7.868-.04-2.763.786-5.483 2.39-7.867 1.589-2.33 3.886-4.231 6.637-5.496 2.92-1.302 6.153-1.981 9.433-1.981 3.28 0 6.514.68 9.434 1.981 2.746 1.263 5.042 3.16 6.637 5.482 1.611 2.386 2.437 5.113 2.389 7.881.048 2.769-.778 5.495-2.389 7.882-1.595 2.322-3.891 4.218-6.637 5.481-2.92 1.302-6.154 1.982-9.434 1.982-3.28 0-6.513-.68-9.433-1.982h-.116zm15.598-4.223c1.811-.893 3.3-2.21 4.297-3.803 1.054-1.648 1.592-3.508 1.56-5.394.032-1.887-.506-3.747-1.56-5.395-1.019-1.544-2.506-2.815-4.297-3.673a14.659 14.659 0 00-6.165-1.344c-2.15 0-4.267.461-6.164 1.344-1.803.877-3.291 2.174-4.298 3.745-1.053 1.648-1.591 3.509-1.56 5.395-.031 1.886.507 3.746 1.56 5.394 1.007 1.571 2.495 2.868 4.298 3.746a14.654 14.654 0 006.164 1.344c2.15 0 4.268-.462 6.165-1.344v-.015zm50.615-24.484v30.255h-5.286L227.83 15.69v20.542h-6.397V5.978h5.337l19.141 20.541V5.979h6.347z" fill="#343A56"/><path d="M272.599 6.716c0 3.437-3.217 6.315-7.305 6.315-4.087 0-7.304-2.878-7.304-6.315 0-3.438 3.217-6.315 7.304-6.315 4.088 0 7.305 2.877 7.305 6.315z" stroke="#343A56" stroke-width=".802"/><path d="M265.709 7.487h-1.16v2.107h-1.456V3.838h2.626c.834 0 1.478.151 1.931.455.453.303.68.731.68 1.284 0 .393-.105.721-.316.985-.207.26-.522.47-.946.625l1.529 2.352v.055h-1.563l-1.325-2.107zm-1.16-.96h1.174c.366 0 .649-.076.85-.226a.749.749 0 00.301-.629c0-.271-.096-.485-.287-.64-.187-.156-.477-.233-.868-.233h-1.17v1.727z" fill="#343A56"/><path d="M87.604 47.672a1.163 1.163 0 00-.503-.87c-.293-.207-.673-.31-1.142-.31-.33 0-.612.05-.848.149a1.26 1.26 0 00-.541.404.985.985 0 00-.069 1.057c.086.134.2.247.346.341.145.091.305.168.481.23.176.063.354.115.533.158l.818.204c.33.077.646.18.95.312.307.13.581.295.823.494.244.199.437.439.58.72.141.281.212.61.212.989 0 .511-.13.961-.392 1.35-.261.387-.639.69-1.133.908-.492.216-1.087.324-1.786.324-.679 0-1.268-.105-1.768-.315a2.634 2.634 0 01-1.168-.92c-.278-.404-.429-.896-.451-1.475H84.1c.023.304.116.557.281.758.165.202.38.353.644.452.267.1.565.15.895.15.343 0 .644-.052.903-.154.261-.105.466-.25.614-.435a1.05 1.05 0 00.225-.656.835.835 0 00-.2-.563 1.47 1.47 0 00-.55-.375 5.302 5.302 0 00-.818-.272l-.993-.256c-.719-.185-1.287-.465-1.704-.84-.415-.377-.622-.879-.622-1.504 0-.514.139-.964.417-1.35a2.759 2.759 0 011.147-.9c.482-.216 1.03-.324 1.64-.324.62 0 1.162.108 1.628.324.469.213.837.51 1.104.89.267.379.404.813.413 1.305h-1.521zm4.946-1.074v-1.325h6.963v1.325h-2.697V54h-1.568v-7.402H92.55zM103.136 54v-8.727h3.272c.671 0 1.233.116 1.688.35a2.38 2.38 0 011.035.98c.236.417.354.904.354 1.46 0 .56-.119 1.046-.358 1.458-.236.41-.584.726-1.044.95-.46.222-1.025.333-1.696.333h-2.331v-1.313h2.118c.392 0 .713-.053.963-.161.25-.111.435-.272.554-.482.122-.213.183-.474.183-.784 0-.31-.061-.574-.183-.793a1.164 1.164 0 00-.558-.502c-.25-.117-.573-.175-.968-.175h-1.448V54h-1.581zm4.508-3.955L109.805 54h-1.765l-2.122-3.955h1.726zM113.22 54v-8.727h5.676v1.325h-4.095v2.37h3.801v1.325h-3.801v2.382h4.13V54h-5.711zm9.186-7.402v-1.325h6.963v1.325h-2.698V54h-1.568v-7.402h-2.697zm17.669 1.62h-1.594a1.978 1.978 0 00-.251-.695 1.897 1.897 0 00-.456-.52 1.908 1.908 0 00-.623-.32 2.424 2.424 0 00-.745-.11c-.475 0-.895.119-1.262.357-.366.236-.653.583-.86 1.04-.208.455-.312 1.01-.312 1.666 0 .668.104 1.23.312 1.688.21.454.497.798.86 1.031.367.23.786.345 1.257.345.262 0 .506-.034.733-.102a2.01 2.01 0 00.618-.311 1.89 1.89 0 00.729-1.185l1.594.009c-.06.415-.189.804-.388 1.167a3.444 3.444 0 01-.771.964 3.57 3.57 0 01-1.117.647 4.15 4.15 0 01-1.419.23c-.767 0-1.452-.177-2.054-.532-.602-.356-1.077-.868-1.423-1.539-.347-.67-.52-1.474-.52-2.412 0-.94.175-1.744.524-2.412.35-.67.825-1.183 1.428-1.538.602-.355 1.284-.533 2.045-.533.486 0 .938.069 1.355.205.418.136.79.337 1.117.6.326.262.595.583.805.964.213.378.352.81.418 1.295zM143.803 54v-8.727h1.58v3.694h4.045v-3.694h1.585V54h-1.585v-3.707h-4.045V54h-1.58zm23.936-5.783h-1.594a1.978 1.978 0 00-.251-.694 1.864 1.864 0 00-1.078-.84 2.43 2.43 0 00-.746-.11 2.26 2.26 0 00-1.261.357c-.367.236-.654.583-.861 1.04-.208.455-.311 1.01-.311 1.666 0 .668.103 1.23.311 1.688.21.454.497.798.861 1.031.366.23.785.345 1.257.345.261 0 .505-.034.733-.102.23-.071.436-.175.617-.311a1.89 1.89 0 00.729-1.185l1.594.009c-.06.415-.189.804-.388 1.167a3.444 3.444 0 01-.771.964c-.318.275-.69.491-1.117.647a4.15 4.15 0 01-1.419.23c-.767 0-1.451-.177-2.054-.532-.602-.356-1.076-.868-1.423-1.539-.347-.67-.52-1.474-.52-2.412 0-.94.175-1.744.524-2.412.35-.67.826-1.183 1.428-1.538s1.284-.533 2.045-.533c.486 0 .938.069 1.355.205.418.136.79.337 1.117.6.327.262.595.583.805.964.213.378.353.81.418 1.295zM171.467 54v-8.727h5.676v1.325h-4.095v2.37h3.801v1.325h-3.801v2.382h4.129V54h-5.71zm11.15-8.727V54h-1.581v-8.727h1.581zM186.609 54v-8.727h1.581v7.402h3.843V54h-5.424zm10.658-8.727V54h-1.581v-8.727h1.581zm11.163 0V54h-1.406l-4.112-5.945h-.072V54h-1.581v-8.727h1.414l4.108 5.949h.077v-5.95h1.572zm9.85 2.787a2.256 2.256 0 00-.294-.618 1.9 1.9 0 00-.443-.473 1.794 1.794 0 00-.589-.294 2.449 2.449 0 00-.724-.103c-.469 0-.886.118-1.253.354-.366.236-.655.582-.865 1.04-.207.454-.311 1.008-.311 1.662 0 .659.104 1.217.311 1.675.208.457.496.805.865 1.044.369.235.798.353 1.287.353.443 0 .827-.085 1.151-.255a1.8 1.8 0 00.754-.725c.176-.315.264-.684.264-1.108l.358.056h-2.369v-1.236h3.541v1.048c0 .747-.159 1.394-.477 1.939a3.26 3.26 0 01-1.313 1.261c-.557.293-1.196.44-1.917.44-.804 0-1.51-.181-2.118-.542a3.745 3.745 0 01-1.419-1.547c-.338-.67-.507-1.466-.507-2.386 0-.705.099-1.334.298-1.888a4.086 4.086 0 01.844-1.41c.36-.39.784-.685 1.269-.887a4.049 4.049 0 011.586-.307c.483 0 .933.071 1.351.214.417.139.788.338 1.112.596a3.261 3.261 0 011.219 2.097h-1.611zm10.235-.388a1.165 1.165 0 00-.503-.87c-.293-.207-.674-.31-1.142-.31-.33 0-.612.05-.848.149a1.26 1.26 0 00-.541.404.985.985 0 00-.069 1.057c.086.134.201.247.346.341.144.091.305.168.481.23.176.063.354.115.533.158l.818.204c.329.077.646.18.95.312.307.13.581.295.823.494.244.199.437.439.579.72.142.281.213.61.213.989 0 .511-.13.961-.392 1.35-.261.387-.639.69-1.133.908-.492.216-1.087.324-1.786.324-.679 0-1.268-.105-1.768-.315a2.635 2.635 0 01-1.168-.92c-.278-.404-.429-.896-.452-1.475h1.556c.023.304.116.557.281.758.165.202.379.353.644.452.267.1.565.15.894.15.344 0 .645-.052.904-.154a1.46 1.46 0 00.613-.435 1.05 1.05 0 00.226-.656.833.833 0 00-.2-.563 1.471 1.471 0 00-.55-.375 5.281 5.281 0 00-.818-.272l-.993-.256c-.719-.185-1.287-.465-1.704-.84-.415-.377-.622-.879-.622-1.504 0-.514.139-.964.417-1.35a2.756 2.756 0 011.146-.9c.483-.216 1.03-.324 1.641-.324.619 0 1.162.108 1.628.324.469.213.837.51 1.104.89.267.379.404.813.413 1.305h-1.521z" fill="#000"/></svg>