<svg width="199" height="49" fill="none" xmlns="http://www.w3.org/2000/svg"><path d="M20.159 5H0v20.146L20.159 5zm-.184 40.121H40.12V24.975L19.975 45.12z" fill="#405EAA"/><path d="M0 45.121h14.969L40.12 19.969V5H25.165L0 30.152v14.969z" fill="#D4D7D8"/><path d="M62.914 27.71c-1.93-1.963-2.895-4.773-2.895-8.429V5h4.662v14.097c0 4.907 2.147 7.447 6.441 7.447 4.294 0 6.392-2.454 6.392-7.447V5h4.589v14.281c0 3.656-.97 6.466-2.908 8.429a10.907 10.907 0 01-8.134 2.956 10.966 10.966 0 01-8.147-2.956zM111.513 5v25.304h-3.878l-13.953-17.18v17.18h-4.639V5h3.866l13.94 17.18V5h4.664zm7.207 0h4.7v25.304h-4.7V5zm16.895 24.01a12.314 12.314 0 01-4.838-4.597 12.706 12.706 0 01-1.657-6.58 12.684 12.684 0 011.741-6.58 12.317 12.317 0 014.839-4.596 15.092 15.092 0 0113.752 0 12.367 12.367 0 014.839 4.584 12.626 12.626 0 011.741 6.592 12.626 12.626 0 01-1.741 6.593 12.367 12.367 0 01-4.839 4.584 15.092 15.092 0 01-13.752 0h-.085zm11.37-3.532a8.128 8.128 0 003.133-3.181 9.01 9.01 0 001.137-4.512 9.01 9.01 0 00-1.137-4.512 8.131 8.131 0 00-3.133-3.072 9.545 9.545 0 00-8.987 0 8.13 8.13 0 00-3.133 3.133 8.999 8.999 0 00-1.137 4.512 8.999 8.999 0 001.137 4.511 8.13 8.13 0 003.133 3.133 9.543 9.543 0 008.987 0v-.012zM183.88 5v25.304h-3.853l-13.953-17.18v17.18h-4.663V5h3.89l13.953 17.18V5h4.626z" fill="#343A56"/><circle cx="193.383" cy="5.617" r="5.216" stroke="#343A56" stroke-width=".802"/><path d="M193.685 6.262h-.845v1.762h-1.062V3.21h1.914c.609 0 1.078.126 1.409.38.33.253.495.612.495 1.075 0 .328-.077.603-.23.823-.151.218-.381.392-.69.522l1.114 1.968v.046h-1.139l-.966-1.762zm-.845-.804h.856c.266 0 .473-.063.619-.188.146-.128.219-.303.219-.526 0-.227-.069-.406-.208-.536-.137-.13-.348-.195-.634-.195h-.852v1.445z" fill="#343A56"/><path d="M67.604 39.672a1.163 1.163 0 00-.503-.87c-.293-.207-.673-.31-1.142-.31-.33 0-.612.05-.848.149a1.26 1.26 0 00-.541.404.985.985 0 00-.069 1.057c.086.134.2.247.346.341.145.091.305.168.481.23.176.063.354.115.533.158l.818.204c.33.077.646.18.95.312.307.13.581.295.823.494.244.199.437.439.58.72.141.281.212.61.212.989 0 .511-.13.961-.392 1.35-.261.387-.639.69-1.133.908-.492.216-1.087.324-1.786.324-.679 0-1.268-.105-1.768-.315a2.634 2.634 0 01-1.168-.92c-.278-.404-.429-.896-.452-1.475h1.556c.023.304.116.557.281.758.165.202.38.353.644.452.267.1.565.15.895.15.343 0 .644-.052.903-.154.261-.105.466-.25.614-.435a1.05 1.05 0 00.225-.656.835.835 0 00-.2-.563 1.47 1.47 0 00-.55-.375 5.302 5.302 0 00-.818-.272l-.993-.256c-.719-.185-1.287-.465-1.704-.84-.415-.377-.622-.879-.622-1.504 0-.514.139-.964.417-1.35a2.759 2.759 0 011.147-.9c.482-.216 1.03-.324 1.64-.324.62 0 1.162.108 1.628.324.469.213.837.51 1.104.89.267.379.404.813.413 1.305h-1.521zm2.666-1.074v-1.325h6.963v1.325h-2.697V46h-1.568v-7.402H70.27zM78.576 46v-8.727h3.272c.67 0 1.233.116 1.688.35a2.38 2.38 0 011.035.98c.236.417.354.904.354 1.46 0 .56-.12 1.046-.358 1.458-.236.41-.584.726-1.044.95-.46.222-1.025.333-1.696.333h-2.33v-1.313h2.117c.392 0 .713-.053.963-.161.25-.111.435-.272.554-.482.122-.213.183-.474.183-.784 0-.31-.06-.574-.183-.793a1.165 1.165 0 00-.558-.502c-.25-.117-.573-.175-.967-.175h-1.45V46h-1.58zm4.508-3.955L85.244 46h-1.763l-2.123-3.955h1.726zM86.38 46v-8.727h5.677v1.325H87.96v2.37h3.801v1.325h-3.8v2.382h4.129V46h-5.71zm6.906-7.402v-1.325h6.963v1.325h-2.697V46h-1.569v-7.402h-2.697zm15.389 1.62h-1.594a1.978 1.978 0 00-.251-.695 1.897 1.897 0 00-.456-.52 1.908 1.908 0 00-.623-.32 2.424 2.424 0 00-.745-.11c-.475 0-.895.119-1.262.357-.366.236-.653.583-.86 1.04-.208.455-.312 1.01-.312 1.666 0 .668.104 1.23.312 1.688.21.454.497.798.86 1.031.367.23.786.345 1.257.345.262 0 .506-.034.733-.102a2.01 2.01 0 00.618-.311 1.89 1.89 0 00.729-1.185l1.594.009c-.06.415-.189.804-.388 1.167a3.444 3.444 0 01-.771.964 3.57 3.57 0 01-1.117.647 4.15 4.15 0 01-1.419.23c-.767 0-1.452-.177-2.054-.532-.602-.356-1.077-.868-1.423-1.539-.347-.67-.52-1.474-.52-2.412 0-.94.175-1.744.524-2.412.35-.67.825-1.183 1.428-1.538.602-.355 1.284-.533 2.045-.533.486 0 .938.069 1.355.205.418.136.79.337 1.117.6.326.262.595.583.805.964.213.378.352.81.418 1.295zM110.123 46v-8.727h1.58v3.694h4.045v-3.694h1.585V46h-1.585v-3.707h-4.045V46h-1.58zm19.376-5.783h-1.594a1.978 1.978 0 00-.251-.694 1.864 1.864 0 00-1.078-.84 2.43 2.43 0 00-.746-.11 2.26 2.26 0 00-1.261.357c-.367.236-.654.583-.861 1.04-.208.455-.311 1.01-.311 1.666 0 .668.103 1.23.311 1.688.21.454.497.798.861 1.031.366.23.785.345 1.257.345.261 0 .505-.034.733-.102.23-.071.436-.175.617-.311a1.89 1.89 0 00.729-1.185l1.594.009c-.06.415-.189.804-.388 1.167a3.444 3.444 0 01-.771.964c-.318.275-.69.491-1.117.647a4.15 4.15 0 01-1.419.23c-.767 0-1.451-.177-2.054-.532-.602-.356-1.076-.868-1.423-1.539-.347-.67-.52-1.474-.52-2.412 0-.94.175-1.744.524-2.412.35-.67.826-1.183 1.428-1.538s1.284-.533 2.045-.533c.486 0 .938.069 1.355.205.418.136.79.337 1.117.6.327.262.595.583.805.964.213.378.353.81.418 1.295zM130.947 46v-8.727h5.676v1.325h-4.095v2.37h3.801v1.325h-3.801v2.382h4.129V46h-5.71zm8.87-8.727V46h-1.581v-8.727h1.581zM141.529 46v-8.727h1.581v7.402h3.843V46h-5.424zm8.378-8.727V46h-1.581v-8.727h1.581zm8.883 0V46h-1.406l-4.112-5.945h-.072V46h-1.581v-8.727h1.414l4.108 5.949h.077v-5.95h1.572zm7.57 2.787a2.256 2.256 0 00-.294-.618 1.9 1.9 0 00-.443-.473 1.794 1.794 0 00-.589-.294 2.449 2.449 0 00-.724-.103c-.469 0-.886.118-1.253.354-.366.236-.655.582-.865 1.04-.207.454-.311 1.008-.311 1.662 0 .659.104 1.217.311 1.675.208.457.496.805.865 1.044.369.235.798.353 1.287.353.443 0 .827-.085 1.151-.255a1.8 1.8 0 00.754-.725c.176-.315.264-.684.264-1.108l.358.056h-2.369v-1.236h3.541v1.048c0 .747-.159 1.394-.477 1.939a3.26 3.26 0 01-1.313 1.261c-.557.293-1.196.44-1.917.44-.804 0-1.51-.181-2.118-.542a3.745 3.745 0 01-1.419-1.547c-.338-.67-.507-1.466-.507-2.386 0-.705.099-1.334.298-1.888a4.086 4.086 0 01.844-1.41c.36-.39.784-.685 1.269-.887a4.049 4.049 0 011.586-.307c.483 0 .933.071 1.351.214.417.139.788.338 1.112.596a3.261 3.261 0 011.219 2.097h-1.611zm7.955-.388a1.165 1.165 0 00-.503-.87c-.293-.207-.674-.31-1.142-.31-.33 0-.612.05-.848.149a1.26 1.26 0 00-.541.404.985.985 0 00-.069 1.057c.086.134.201.247.346.341.144.091.305.168.481.23.176.063.354.115.533.158l.818.204c.329.077.646.18.95.312.307.13.581.295.823.494.244.199.437.439.579.72.142.281.213.61.213.989 0 .511-.13.961-.392 1.35-.261.387-.639.69-1.133.908-.492.216-1.087.324-1.786.324-.679 0-1.268-.105-1.768-.315a2.635 2.635 0 01-1.168-.92c-.278-.404-.429-.896-.452-1.475h1.556c.023.304.116.557.281.758.165.202.379.353.644.452.267.1.565.15.894.15.344 0 .645-.052.904-.154a1.46 1.46 0 00.613-.435 1.05 1.05 0 00.226-.656.833.833 0 00-.2-.563 1.471 1.471 0 00-.55-.375 5.281 5.281 0 00-.818-.272l-.993-.256c-.719-.185-1.287-.465-1.704-.84-.415-.377-.622-.879-.622-1.504 0-.514.139-.964.417-1.35a2.756 2.756 0 011.146-.9c.483-.216 1.03-.324 1.641-.324.619 0 1.162.108 1.628.324.469.213.837.51 1.104.89.267.379.404.813.413 1.305h-1.521z" fill="#000"/></svg>