<?xml version="1.0" standalone="no"?>
<!DOCTYPE svg PUBLIC "-//W3C//DTD SVG 20010904//EN"
 "http://www.w3.org/TR/2001/REC-SVG-20010904/DTD/svg10.dtd">
<svg version="1.0" xmlns="http://www.w3.org/2000/svg"
 width="700.000000pt" height="700.000000pt" viewBox="0 0 700.000000 700.000000"
 preserveAspectRatio="xMidYMid meet">
<metadata>
Created by potrace 1.14, written by Peter Selinger 2001-2017
</metadata>
<g transform="translate(0.000000,700.000000) scale(0.100000,-0.100000)"
fill="#000000" stroke="none">
<path d="M15 6988 c-6 -14 0 -3261 6 -3936 2 -233 1 -426 -4 -429 -4 -2 -7
-593 -7 -1312 l0 -1307 1303 1 c824 1 1311 5 1327 11 34 13 856 11 853 -2 -1
-7 597 -10 1753 -10 l1754 0 0 3498 0 3498 -3490 0 c-2783 0 -3492 -3 -3495
-12z"/>
</g>
</svg>
