<svg width="18" height="18" fill="none" xmlns="http://www.w3.org/2000/svg"><path fill-rule="evenodd" clip-rule="evenodd" d="M12.573 17.333H5.43a4.796 4.796 0 01-3.367-1.375 4.661 4.661 0 01-1.395-3.32V5.362c0-1.245.502-2.439 1.395-3.32A4.797 4.797 0 015.43.668h7.143c1.263 0 2.474.494 3.367 1.375a4.662 4.662 0 011.395 3.32v7.277c0 .616-.123 1.227-.363 1.796a4.69 4.69 0 01-1.032 1.523 4.765 4.765 0 01-1.545 1.018 4.82 4.82 0 01-1.822.357zM15.787 5.01c0-.778-.314-1.524-.872-2.074a2.998 2.998 0 00-2.104-.86H5.073a3 3 0 00-2.105.86 2.913 2.913 0 00-.871 2.074v7.63c0 .778.313 1.524.871 2.074a3 3 0 002.105.86h7.738c.79 0 1.546-.31 2.104-.86s.872-1.296.872-2.074V5.01zm-2.38.47c-.213 0-.42-.062-.596-.178a1.043 1.043 0 01-.162-1.625 1.077 1.077 0 011.167-.23c.196.08.363.216.48.39a1.045 1.045 0 01-.132 1.333c-.201.199-.474.31-.758.31zm-4.465 7.746c-.86 0-1.7-.25-2.414-.722a4.298 4.298 0 01-1.6-1.922 4.228 4.228 0 01-.248-2.476 4.266 4.266 0 011.19-2.193A4.365 4.365 0 018.093 4.74a4.403 4.403 0 012.51.243 4.332 4.332 0 011.95 1.578 4.24 4.24 0 01-.54 5.41 4.377 4.377 0 01-3.072 1.254zm0-7.042c-.554 0-1.094.162-1.554.465-.46.303-.82.734-1.03 1.238a2.722 2.722 0 00-.16 1.593c.108.535.374 1.027.766 1.413.39.385.89.648 1.432.755a2.835 2.835 0 001.616-.158 2.79 2.79 0 001.256-1.015 2.73 2.73 0 00-.348-3.483 2.818 2.818 0 00-1.978-.808z" fill="#FF20A7"/><path fill-rule="evenodd" clip-rule="evenodd" d="M12.573 17.333H5.43a4.796 4.796 0 01-3.367-1.375 4.661 4.661 0 01-1.395-3.32V5.362c0-1.245.502-2.439 1.395-3.32A4.797 4.797 0 015.43.668h7.143c1.263 0 2.474.494 3.367 1.375a4.662 4.662 0 011.395 3.32v7.277c0 .616-.123 1.227-.363 1.796a4.69 4.69 0 01-1.032 1.523 4.765 4.765 0 01-1.545 1.018 4.82 4.82 0 01-1.822.357zM15.787 5.01c0-.778-.314-1.524-.872-2.074a2.998 2.998 0 00-2.104-.86H5.073a3 3 0 00-2.105.86 2.913 2.913 0 00-.871 2.074v7.63c0 .778.313 1.524.871 2.074a3 3 0 002.105.86h7.738c.79 0 1.546-.31 2.104-.86s.872-1.296.872-2.074V5.01zm-2.38.47c-.213 0-.42-.062-.596-.178a1.043 1.043 0 01-.162-1.625 1.077 1.077 0 011.167-.23c.196.08.363.216.48.39a1.045 1.045 0 01-.132 1.333c-.201.199-.474.31-.758.31zm-4.465 7.746c-.86 0-1.7-.25-2.414-.722a4.298 4.298 0 01-1.6-1.922 4.228 4.228 0 01-.248-2.476 4.266 4.266 0 011.19-2.193A4.365 4.365 0 018.093 4.74a4.403 4.403 0 012.51.243 4.332 4.332 0 011.95 1.578 4.24 4.24 0 01-.54 5.41 4.377 4.377 0 01-3.072 1.254zm0-7.042c-.554 0-1.094.162-1.554.465-.46.303-.82.734-1.03 1.238a2.722 2.722 0 00-.16 1.593c.108.535.374 1.027.766 1.413.39.385.89.648 1.432.755a2.835 2.835 0 001.616-.158 2.79 2.79 0 001.256-1.015 2.73 2.73 0 00-.348-3.483 2.818 2.818 0 00-1.978-.808z" fill="url(#paint0_radial)"/><path fill-rule="evenodd" clip-rule="evenodd" d="M12.573 17.333H5.43a4.796 4.796 0 01-3.367-1.375 4.661 4.661 0 01-1.395-3.32V5.362c0-1.245.502-2.439 1.395-3.32A4.797 4.797 0 015.43.668h7.143c1.263 0 2.474.494 3.367 1.375a4.662 4.662 0 011.395 3.32v7.277c0 .616-.123 1.227-.363 1.796a4.69 4.69 0 01-1.032 1.523 4.765 4.765 0 01-1.545 1.018 4.82 4.82 0 01-1.822.357zM15.787 5.01c0-.778-.314-1.524-.872-2.074a2.998 2.998 0 00-2.104-.86H5.073a3 3 0 00-2.105.86 2.913 2.913 0 00-.871 2.074v7.63c0 .778.313 1.524.871 2.074a3 3 0 002.105.86h7.738c.79 0 1.546-.31 2.104-.86s.872-1.296.872-2.074V5.01zm-2.38.47c-.213 0-.42-.062-.596-.178a1.043 1.043 0 01-.162-1.625 1.077 1.077 0 011.167-.23c.196.08.363.216.48.39a1.045 1.045 0 01-.132 1.333c-.201.199-.474.31-.758.31zm-4.465 7.746c-.86 0-1.7-.25-2.414-.722a4.298 4.298 0 01-1.6-1.922 4.228 4.228 0 01-.248-2.476 4.266 4.266 0 011.19-2.193A4.365 4.365 0 018.093 4.74a4.403 4.403 0 012.51.243 4.332 4.332 0 011.95 1.578 4.24 4.24 0 01-.54 5.41 4.377 4.377 0 01-3.072 1.254zm0-7.042c-.554 0-1.094.162-1.554.465-.46.303-.82.734-1.03 1.238a2.722 2.722 0 00-.16 1.593c.108.535.374 1.027.766 1.413.39.385.89.648 1.432.755a2.835 2.835 0 001.616-.158 2.79 2.79 0 001.256-1.015 2.73 2.73 0 00-.348-3.483 2.818 2.818 0 00-1.978-.808z" fill="url(#paint1_radial)"/><path fill-rule="evenodd" clip-rule="evenodd" d="M12.573 17.333H5.43a4.796 4.796 0 01-3.367-1.375 4.661 4.661 0 01-1.395-3.32V5.362c0-1.245.502-2.439 1.395-3.32A4.797 4.797 0 015.43.668h7.143c1.263 0 2.474.494 3.367 1.375a4.662 4.662 0 011.395 3.32v7.277c0 .616-.123 1.227-.363 1.796a4.69 4.69 0 01-1.032 1.523 4.765 4.765 0 01-1.545 1.018 4.82 4.82 0 01-1.822.357zM15.787 5.01c0-.778-.314-1.524-.872-2.074a2.998 2.998 0 00-2.104-.86H5.073a3 3 0 00-2.105.86 2.913 2.913 0 00-.871 2.074v7.63c0 .778.313 1.524.871 2.074a3 3 0 002.105.86h7.738c.79 0 1.546-.31 2.104-.86s.872-1.296.872-2.074V5.01zm-2.38.47c-.213 0-.42-.062-.596-.178a1.043 1.043 0 01-.162-1.625 1.077 1.077 0 011.167-.23c.196.08.363.216.48.39a1.045 1.045 0 01-.132 1.333c-.201.199-.474.31-.758.31zm-4.465 7.746c-.86 0-1.7-.25-2.414-.722a4.298 4.298 0 01-1.6-1.922 4.228 4.228 0 01-.248-2.476 4.266 4.266 0 011.19-2.193A4.365 4.365 0 018.093 4.74a4.403 4.403 0 012.51.243 4.332 4.332 0 011.95 1.578 4.24 4.24 0 01-.54 5.41 4.377 4.377 0 01-3.072 1.254zm0-7.042c-.554 0-1.094.162-1.554.465-.46.303-.82.734-1.03 1.238a2.722 2.722 0 00-.16 1.593c.108.535.374 1.027.766 1.413.39.385.89.648 1.432.755a2.835 2.835 0 001.616-.158 2.79 2.79 0 001.256-1.015 2.73 2.73 0 00-.348-3.483 2.818 2.818 0 00-1.978-.808z" fill="#343433"/><defs><radialGradient id="paint0_radial" cx="0" cy="0" r="1" gradientUnits="userSpaceOnUse" gradientTransform="rotate(106.302 -3.883 10.218) scale(11.5042)"><stop stop-color="#FFFCB2"/><stop offset=".234" stop-color="#FFB21C" stop-opacity=".818"/><stop offset="1" stop-color="#FF24BE" stop-opacity="0"/></radialGradient><radialGradient id="paint1_radial" cx="0" cy="0" r="1" gradientUnits="userSpaceOnUse" gradientTransform="rotate(75.303 1.881 3.331) scale(6.56911 15.4049)"><stop stop-color="#2E62DF"/><stop offset="1" stop-color="#6E48D8" stop-opacity="0"/></radialGradient></defs></svg>