<svg width="20" height="20" fill="none" xmlns="http://www.w3.org/2000/svg"><path d="M17.337 1.95c-.49-.458-2.466-1.916-6.869-1.936 0 0-5.191-.318-7.722 2.041C1.337 3.487.84 5.581.789 8.18c-.052 2.598-.12 7.465 4.498 8.786h.004L5.29 18.98s-.03.816.498.981c.64.202 1.015-.418 1.625-1.086.335-.366.797-.905 1.146-1.317 3.158.27 5.587-.347 5.863-.438.638-.211 4.247-.68 4.833-5.547.606-5.019-.293-8.192-1.917-9.624zm.545 9.26c-.496 4.064-3.422 4.321-3.96 4.497-.23.075-2.365.614-5.047.436L5.967 19.34l-.003-3.685-.023-.006c-3.906-1.103-3.775-5.236-3.73-7.406.043-2.17.444-3.947 1.636-5.142 2.14-1.97 6.55-1.676 6.55-1.676 3.725.017 5.51 1.156 5.924 1.538 1.373 1.196 2.073 4.056 1.561 8.246z" fill="#AA5ABE"/><path d="M14.52 11.816a26.574 26.574 0 00-.88-.717 11.29 11.29 0 00-.948-.614c-.435-.246-.88-.092-1.063.15l-.381.486c-.195.247-.496.206-.575.19-.564-.14-1.162-.49-1.775-1.079-.62-.594-.995-1.215-1.129-1.86l-.01-.043a.731.731 0 01.118-.568l.02-.017c.258-.238.735-.527.799-.802.187-.478-.627-1.475-.743-1.651 0 0-.592-.778-.803-.927-.227-.188-.58-.295-.934-.078l-.019.013c-1.02.685-1.39 1.08-1.289 1.667l.053.236c.517 1.62 1.516 3.345 3.006 4.882 1.474 1.518 3.069 2.427 4.64 3.057.408.134.832.018 1.266-.35l.007-.005c.333-.309.597-.64.793-.993l.002-.007c.191-.374.127-.729-.155-.97zm-2.446-3.545a.118.118 0 01-.117-.113c-.02-.42-.135-.74-.34-.956-.203-.213-.507-.332-.904-.354a.119.119 0 01-.11-.125.119.119 0 01.123-.113c.458.025.814.168 1.06.426.245.258.382.63.405 1.11a.12.12 0 01-.111.125h-.006z" fill="#AA5ABE"/><path d="M13.236 8.667h-.003a.119.119 0 01-.114-.122c.018-.806-.22-1.487-.705-2.025a2.568 2.568 0 00-.874-.632 3.549 3.549 0 00-1.173-.276.119.119 0 01-.109-.127.118.118 0 01.126-.11c.937.07 1.678.4 2.203.984.528.584.786 1.322.767 2.191a.119.119 0 01-.118.117z" fill="#AA5ABE"/><path d="M14.427 9.14a.118.118 0 01-.118-.118c-.005-.712-.113-1.357-.322-1.915a3.998 3.998 0 00-.93-1.45 4.198 4.198 0 00-1.388-.922 4.603 4.603 0 00-1.694-.316.119.119 0 01-.116-.12c0-.067.053-.12.117-.12 1.287.01 2.378.45 3.245 1.307.434.431.766.948.986 1.536.218.585.331 1.258.337 1.998a.118.118 0 01-.116.12h-.001z" fill="#AA5ABE"/></svg>