<svg width="17" height="10" fill="none" xmlns="http://www.w3.org/2000/svg"><path fill-rule="evenodd" clip-rule="evenodd" d="M13.042 9.547h-.12c-.816-.129-1.32-.681-1.794-1.196-.272-.29-.71-1.035-1.197-.957-.693.109-.306 1.3-.598 1.794-.232.395-1.232.311-1.915.24-2.165-.223-3.34-1.307-4.307-2.513C2.072 5.628 1.325 4.217.598 2.728.36 2.24 0 1.765 0 1.172.352.896.976.933 1.555.933c.488 0 1.197-.056 1.556.12.213.106.426.72.598 1.076a12.93 12.93 0 001.197 2.034c.209.287.585.792.957.718.366-.07.343-.88.359-1.436.019-.63.068-1.458-.12-1.794-.174-.315-.513-.29-.837-.479C5.533.646 6.282.574 7.179.574c.752 0 1.737-.12 2.034.36.295.493.142 1.49.12 2.153-.023.743-.169 1.45.359 1.794.408-.042.603-.419.837-.718.52-.656.915-1.19 1.316-2.034.164-.352.301-.965.599-1.076.454-.164 1.13-.12 1.794-.12.548 0 1.502-.123 1.676.24.14.289-.228 1.106-.36 1.315-.505.797-1.012 1.342-1.555 2.034-.219.28-.627.636-.598 1.077.02.34.329.599.598.837.523.477 1.003.997 1.436 1.556.178.22.638.672.598.957-.11.89-2.99.59-2.991.598z" fill="#0077A8"/></svg>