<svg width="17" height="18" fill="none" xmlns="http://www.w3.org/2000/svg"><path fill-rule="evenodd" clip-rule="evenodd" d="M4.428 7.007a2.082 2.082 0 01.213-1.085c.05-.134.122-.26.21-.372.158-.213.368-.38.611-.487 0 0 .722-.07.784.026.335.579.614 1.187.836 1.817.11.412-.47.882-.47.882s-.367.187 0 .65c.274.344.74.945 1.02 1.167.295.24.61.458.94.649.683.377.81.337.81.337s.126.052.47-.415c.184-.248.384-.538.575-.597.22-.067 2.005.954 1.934.882.125.126.027.528.027.528s.038.45-.641.97c-.448.342-1.19.423-1.19.423a4.55 4.55 0 01-1.358-.311c-.724-.272-1.49-.5-2.482-1.401a9.955 9.955 0 01-1.78-2.13c-.523-.897-.509-1.533-.509-1.533zm3.895 9.631a8.015 8.015 0 01-3.95-1.034L0 17.002l1.437-4.255a7.962 7.962 0 011.151-9.678 8.04 8.04 0 019.684-1.363 7.996 7.996 0 013.433 3.847 7.959 7.959 0 01.364 5.135 7.984 7.984 0 01-2.856 4.288 8.034 8.034 0 01-4.89 1.662zM8.31 2.027a6.709 6.709 0 00-3.49.964 6.676 6.676 0 00-2.475 2.635 6.646 6.646 0 00.489 6.932l-.638 1.926.003.002-.187.543 1.082-.32a.024.024 0 00-.006-.005l1.484-.465a6.716 6.716 0 005.99.76 6.704 6.704 0 002.605-1.678 6.673 6.673 0 001.761-5.754 6.666 6.666 0 00-1.222-2.842A6.722 6.722 0 008.31 2.027z" fill="#00C232"/></svg>