<svg width="16" height="16" fill="none" xmlns="http://www.w3.org/2000/svg"><path fill-rule="evenodd" clip-rule="evenodd" d="M9.449 1.542h.965v3.084c0 .409-.027.83.483.83.32 0 .362-.306.362-.949V1.542h.965v4.507h-.965v-.237l-.362-.118a.881.881 0 01-.242.355.616.616 0 01-.362.119 1.011 1.011 0 01-.482-.119.594.594 0 01-.242-.237 1.25 1.25 0 01-.12-.356c-.015-.144 0-.504 0-.949V1.542zM6.19 3.44c0-.466-.077-.812 0-1.068a1.32 1.32 0 01.483-.593c.205-.16.461-.245.724-.237.247-.014.494.026.724.119a.913.913 0 01.361.355c.106.145.187.305.242.475.073.271.113.55.12.83v.83c-.006.32-.046.638-.12.95-.043.21-.125.41-.242.593a.836.836 0 01-.361.355 1.38 1.38 0 01-.604.119 2.059 2.059 0 01-.724-.119.664.664 0 01-.362-.237 1.97 1.97 0 01-.241-.593c-.004.011 0-.518 0-.949v-.83zM3.898 0l.724 2.372C4.76 1.727 5.016.93 5.226 0h.724l-.845 3.558V6.05H4.26V3.56L3.174 0h.724zm11.343 13.878a2.257 2.257 0 01-.71 1.4 2.33 2.33 0 01-1.462.617c-3.341.14-6.68.14-10.015 0-1.136-.073-2.167-.906-2.293-2.017a38.254 38.254 0 010-5.338c.124-1.11 1.157-2.057 2.293-2.135 3.34-.139 6.553-.139 9.894 0 1.134.078 2.167 1.025 2.293 2.135a38.04 38.04 0 010 5.338zM7.518 5.694c.483 0 .362-.673.362-.83v-1.9c0-.474-.077-.825-.362-.83-.29-.005-.362.356-.362.83v1.898c0 .287-.007.83.362.83zm-5.55 3.202h.965v5.22H4.02v-5.22h.965v-.949H1.968v.95zm4.826 3.44c0 .557-.108.652-.12.712a.354.354 0 01-.14.178.364.364 0 01-.222.059c-.158 0-.204-.1-.242-.237-.015-.058 0-.181 0-.712V9.371h-.965v3.914c.02.201.06.4.12.593a.575.575 0 00.242.237.62.62 0 00.362.119.669.669 0 00.362-.119.912.912 0 00.241-.356l.362.119v.237h.845V9.371h-.845v2.965zm4.103-2.728a.605.605 0 00-.242-.237 1.28 1.28 0 00-.482-.119c-.12 0-.138.056-.242.119-.036.023-.603.711-.603.711V7.947h-.965v6.168h.965v-.237l.12-.356.242.237c.092.149.134.285.241.356a.73.73 0 00.362.119c.305 0 .5-.203.604-.475.063-.192.104-.391.12-.593V9.964a1.107 1.107 0 00-.12-.356zm-.845 2.847c0 .438.003.59 0 .593a.363.363 0 01-.357.23.39.39 0 01-.367-.23c-.022-.065 0-.192 0-.593v-1.187c0-.417-.02-.653 0-.711a.399.399 0 01.58-.174.377.377 0 01.144.174c.02.064 0 .316 0 .711v1.187zm2.534-.593h1.69v-.475c0-.461-.035-1.058-.121-1.305-.081-.238-.278-.332-.483-.474a1.18 1.18 0 00-.724-.237c-.255 0-.53.002-.724.118a1.309 1.309 0 00-.483.593c-.09.229-.12.607-.12 1.186v1.424a1.93 1.93 0 00.315 1.086c.12.14.274.247.448.313.216.092.45.14.685.143a.85.85 0 00.482-.119c.156-.08.378-.194.483-.356.212-.539.241-.356.241-1.186v-.237h-.965v.474c0 .268.039.489 0 .594a.383.383 0 01-.362.237c-.303.004-.362-.292-.362-.712v-1.067zm0-1.187c0-.388-.018-.303 0-.355a.387.387 0 01.362-.238.397.397 0 01.362.238c.017.054 0-.006 0 .355v.712h-.724v-.712z" fill="#E44442"/></svg>