<svg width="20" height="20" fill="none" xmlns="http://www.w3.org/2000/svg"><path fill-rule="evenodd" clip-rule="evenodd" d="M10 .799c1.978 0 3.911.557 5.556 1.6a9.623 9.623 0 013.683 4.264 9.06 9.06 0 01.569 5.49 9.363 9.363 0 01-2.737 4.863 10.174 10.174 0 01-5.12 2.6 10.49 10.49 0 01-5.778-.54 9.908 9.908 0 01-4.488-3.5A9.166 9.166 0 010 10.3c0-2.52 1.054-4.936 2.929-6.718C4.804 1.8 7.348.8 10 .8zm5.472 12.87a.896.896 0 01-.546.399.942.942 0 01-.683-.086l-4.157-2.28a.9.9 0 01-.119-.08.91.91 0 01-.544-.288.828.828 0 01-.217-.554V6.22c0-.227.095-.445.264-.605a.925.925 0 01.636-.25c.239 0 .468.09.636.25a.83.83 0 01.264.605v4.013l4.137 2.268c.206.114.357.3.419.52a.818.818 0 01-.09.648z" fill="#405EAA"/></svg>