<svg width="35" height="37" fill="none" xmlns="http://www.w3.org/2000/svg"><mask id="a" maskUnits="userSpaceOnUse" x="0" y="0" width="35" height="37" fill="#000"><path fill="#fff" d="M0 0h35v37H0z"/><path d="M14.202 1a.821.821 0 00-.584.244.838.838 0 000 1.18.821.821 0 00.584.243h1.646v1.688C7.584 4.791 1 11.712 1 20.167 1 28.9 8.028 36.005 16.676 36a15.43 15.43 0 005.903-1.19A7.322 7.322 0 0026.577 36C30.667 36 34 32.632 34 28.5a7.508 7.508 0 00-2.001-5.103 15.6 15.6 0 00.351-3.23c.005-8.455-6.585-15.378-14.85-15.812V2.667h1.65a.821.821 0 00.583-.244.838.838 0 000-1.179.821.821 0 00-.584-.244h-4.947zm2.473 5c7.756 0 14.03 6.333 14.025 14.166 0 .671-.057 1.341-.156 2.007a7.308 7.308 0 00-3.967-1.174c-4.091 0-7.428 3.37-7.428 7.502a7.5 7.5 0 001.983 5.08c-1.435.492-2.94.751-4.458.752C8.92 34.338 2.65 28.001 2.65 20.167 2.65 12.333 8.92 6 16.675 6zm9.902 16.666c3.199 0 5.772 2.603 5.772 5.835 0 3.231-2.573 5.832-5.772 5.832-3.2 0-5.777-2.6-5.777-5.832 0-3.232 2.577-5.835 5.777-5.835z"/><path d="M24.907 10.993a.821.821 0 00-.566.253l-6.604 6.67a2.425 2.425 0 00-1.064-.248c-1.357 0-2.471 1.126-2.471 2.497 0 .384.09.748.245 1.074l-.83.84a.833.833 0 00-.262.594.843.843 0 00.242.603.827.827 0 00.597.244.82.82 0 00.588-.263l.83-.838a2.42 2.42 0 001.061.247c1.358 0 2.476-1.13 2.476-2.501 0-.383-.09-.746-.245-1.072l6.604-6.67a.835.835 0 00.183-.922.831.831 0 00-.784-.508zm-8.234 8.342c.466 0 .826.36.826.83s-.36.834-.826.834a.818.818 0 01-.825-.834c0-.47.36-.83.825-.83zM17.5 8.5a.84.84 0 01-.51.77.818.818 0 01-1.077-.451.84.84 0 01.179-.908.821.821 0 011.166 0 .838.838 0 01.242.589zM5.124 19.335a.82.82 0 01.583.244.837.837 0 01-.268 1.359.818.818 0 01-.899-.18.834.834 0 01-.241-.59.84.84 0 01.241-.59.82.82 0 01.584-.243zM15.85 31.836c0-.22.087-.433.242-.589a.82.82 0 011.166 0 .837.837 0 01-.267 1.36.82.82 0 01-1.078-.452.84.84 0 01-.063-.319zM7.924 27.83a.824.824 0 01.899-.181.824.824 0 01.446.45.84.84 0 01-.446 1.09.818.818 0 01-.9-.181.834.834 0 01-.178-.908.834.834 0 01.179-.27zM9.09 11.328a.834.834 0 01.18.908.834.834 0 01-.447.451.817.817 0 01-.9-.18.834.834 0 01-.178-.908.834.834 0 01.446-.451.817.817 0 01.9.18zm20.358 14.669a.82.82 0 00-.57.252l-2.716 2.744-1.066-1.077a.825.825 0 00-.911-.202.824.824 0 00-.455.46.84.84 0 00.2.92l1.65 1.667a.82.82 0 001.167 0l3.297-3.334a.835.835 0 00.185-.92.819.819 0 00-.781-.51z"/></mask><path d="M14.202 1a.821.821 0 00-.584.244.838.838 0 000 1.18.821.821 0 00.584.243h1.646v1.688C7.584 4.791 1 11.712 1 20.167 1 28.9 8.028 36.005 16.676 36a15.43 15.43 0 005.903-1.19A7.322 7.322 0 0026.577 36C30.667 36 34 32.632 34 28.5a7.508 7.508 0 00-2.001-5.103 15.6 15.6 0 00.351-3.23c.005-8.455-6.585-15.378-14.85-15.812V2.667h1.65a.821.821 0 00.583-.244.838.838 0 000-1.179.821.821 0 00-.584-.244h-4.947zm2.473 5c7.756 0 14.03 6.333 14.025 14.166 0 .671-.057 1.341-.156 2.007a7.308 7.308 0 00-3.967-1.174c-4.091 0-7.428 3.37-7.428 7.502a7.5 7.5 0 001.983 5.08c-1.435.492-2.94.751-4.458.752C8.92 34.338 2.65 28.001 2.65 20.167 2.65 12.333 8.92 6 16.675 6zm9.902 16.666c3.199 0 5.772 2.603 5.772 5.835 0 3.231-2.573 5.832-5.772 5.832-3.2 0-5.777-2.6-5.777-5.832 0-3.232 2.577-5.835 5.777-5.835z" fill="#405EAA"/><path d="M24.907 10.993a.821.821 0 00-.566.253l-6.604 6.67a2.425 2.425 0 00-1.064-.248c-1.357 0-2.471 1.126-2.471 2.497 0 .384.09.748.245 1.074l-.83.84a.833.833 0 00-.262.594.843.843 0 00.242.603.827.827 0 00.597.244.82.82 0 00.588-.263l.83-.838a2.42 2.42 0 001.061.247c1.358 0 2.476-1.13 2.476-2.501 0-.383-.09-.746-.245-1.072l6.604-6.67a.835.835 0 00.183-.922.831.831 0 00-.784-.508zm-8.234 8.342c.466 0 .826.36.826.83s-.36.834-.826.834a.818.818 0 01-.825-.834c0-.47.36-.83.825-.83zM17.5 8.5a.84.84 0 01-.51.77.818.818 0 01-1.077-.451.84.84 0 01.179-.908.821.821 0 011.166 0 .838.838 0 01.242.589zM5.124 19.335a.82.82 0 01.583.244.837.837 0 01-.268 1.359.818.818 0 01-.899-.18.834.834 0 01-.241-.59.84.84 0 01.241-.59.82.82 0 01.584-.243zM15.85 31.836c0-.22.087-.433.242-.589a.82.82 0 011.166 0 .837.837 0 01-.267 1.36.82.82 0 01-1.078-.452.84.84 0 01-.063-.319zM7.924 27.83a.824.824 0 01.899-.181.824.824 0 01.446.45.84.84 0 01-.446 1.09.818.818 0 01-.9-.181.834.834 0 01-.178-.908.834.834 0 01.179-.27zM9.09 11.328a.834.834 0 01.18.908.834.834 0 01-.447.451.817.817 0 01-.9-.18.834.834 0 01-.178-.908.834.834 0 01.446-.451.817.817 0 01.9.18zm20.358 14.669a.82.82 0 00-.57.252l-2.716 2.744-1.066-1.077a.825.825 0 00-.911-.202.824.824 0 00-.455.46.84.84 0 00.2.92l1.65 1.667a.82.82 0 001.167 0l3.297-3.334a.835.835 0 00.185-.92.819.819 0 00-.781-.51z" fill="#405EAA"/><path d="M14.202 1a.821.821 0 00-.584.244.838.838 0 000 1.18.821.821 0 00.584.243h1.646v1.688C7.584 4.791 1 11.712 1 20.167 1 28.9 8.028 36.005 16.676 36a15.43 15.43 0 005.903-1.19A7.322 7.322 0 0026.577 36C30.667 36 34 32.632 34 28.5a7.508 7.508 0 00-2.001-5.103 15.6 15.6 0 00.351-3.23c.005-8.455-6.585-15.378-14.85-15.812V2.667h1.65a.821.821 0 00.583-.244.838.838 0 000-1.179.821.821 0 00-.584-.244h-4.947zm2.473 5c7.756 0 14.03 6.333 14.025 14.166 0 .671-.057 1.341-.156 2.007a7.308 7.308 0 00-3.967-1.174c-4.091 0-7.428 3.37-7.428 7.502a7.5 7.5 0 001.983 5.08c-1.435.492-2.94.751-4.458.752C8.92 34.338 2.65 28.001 2.65 20.167 2.65 12.333 8.92 6 16.675 6zm9.902 16.666c3.199 0 5.772 2.603 5.772 5.835 0 3.231-2.573 5.832-5.772 5.832-3.2 0-5.777-2.6-5.777-5.832 0-3.232 2.577-5.835 5.777-5.835z" stroke="#405EAA" stroke-width=".6" mask="url(#a)"/><path d="M24.907 10.993a.821.821 0 00-.566.253l-6.604 6.67a2.425 2.425 0 00-1.064-.248c-1.357 0-2.471 1.126-2.471 2.497 0 .384.09.748.245 1.074l-.83.84a.833.833 0 00-.262.594.843.843 0 00.242.603.827.827 0 00.597.244.82.82 0 00.588-.263l.83-.838a2.42 2.42 0 001.061.247c1.358 0 2.476-1.13 2.476-2.501 0-.383-.09-.746-.245-1.072l6.604-6.67a.835.835 0 00.183-.922.831.831 0 00-.784-.508zm-8.234 8.342c.466 0 .826.36.826.83s-.36.834-.826.834a.818.818 0 01-.825-.834c0-.47.36-.83.825-.83zM17.5 8.5a.84.84 0 01-.51.77.818.818 0 01-1.077-.451.84.84 0 01.179-.908.821.821 0 011.166 0 .838.838 0 01.242.589zM5.124 19.335a.82.82 0 01.583.244.837.837 0 01-.268 1.359.818.818 0 01-.899-.18.834.834 0 01-.241-.59.84.84 0 01.241-.59.82.82 0 01.584-.243zM15.85 31.836c0-.22.087-.433.242-.589a.82.82 0 011.166 0 .837.837 0 01-.267 1.36.82.82 0 01-1.078-.452.84.84 0 01-.063-.319zM7.924 27.83a.824.824 0 01.899-.181.824.824 0 01.446.45.84.84 0 01-.446 1.09.818.818 0 01-.9-.181.834.834 0 01-.178-.908.834.834 0 01.179-.27zM9.09 11.328a.834.834 0 01.18.908.834.834 0 01-.447.451.817.817 0 01-.9-.18.834.834 0 01-.178-.908.834.834 0 01.446-.451.817.817 0 01.9.18zm20.358 14.669a.82.82 0 00-.57.252l-2.716 2.744-1.066-1.077a.825.825 0 00-.911-.202.824.824 0 00-.455.46.84.84 0 00.2.92l1.65 1.667a.82.82 0 001.167 0l3.297-3.334a.835.835 0 00.185-.92.819.819 0 00-.781-.51z" stroke="#405EAA" stroke-width=".6" mask="url(#a)"/></svg>