<svg width="40" height="40" fill="none" xmlns="http://www.w3.org/2000/svg"><path d="M0 3.2A3.2 3.2 0 013.2 0h33.6A3.2 3.2 0 0140 3.2v33.6a3.2 3.2 0 01-3.2 3.2H3.2A3.2 3.2 0 010 36.8V3.2z" fill="#1D52A1"/><path fill-rule="evenodd" clip-rule="evenodd" d="M16.667 17.68h1.436v-1.436c0-.639.031-1.658.478-2.273.468-.647 1.046-1.076 2.154-1.076 1.807 0 2.632.239 2.632.239l-.359 2.273a4.065 4.065 0 00-1.196-.24c-.56 0-1.077.137-1.077.719v1.794h2.393v2.154h-2.393v7.537h-2.632v-7.537h-1.436V17.68z" fill="#1D52A1"/><path fill-rule="evenodd" clip-rule="evenodd" d="M16.667 17.68h1.436v-1.436c0-.639.031-1.658.478-2.273.468-.647 1.046-1.076 2.154-1.076 1.807 0 2.632.239 2.632.239l-.359 2.273a4.065 4.065 0 00-1.196-.24c-.56 0-1.077.137-1.077.719v1.794h2.393v2.154h-2.393v7.537h-2.632v-7.537h-1.436V17.68z" fill="#fff"/></svg>