<svg width="40" height="40" fill="none" xmlns="http://www.w3.org/2000/svg"><path d="M0 3.2A3.2 3.2 0 013.2 0h33.6A3.2 3.2 0 0140 3.2v33.6a3.2 3.2 0 01-3.2 3.2H3.2A3.2 3.2 0 010 36.8V3.2z" fill="#0077A8"/><path fill-rule="evenodd" clip-rule="evenodd" d="M25.042 24.547h-.12c-.816-.13-1.32-.682-1.794-1.197-.272-.29-.71-1.035-1.197-.957-.693.11-.306 1.3-.598 1.795-.232.395-1.231.31-1.915.239-2.165-.222-3.34-1.306-4.307-2.512-1.039-1.287-1.786-2.699-2.513-4.188-.239-.488-.598-.963-.598-1.555.352-.276.976-.24 1.556-.24.487 0 1.196-.056 1.555.12.213.106.426.72.598 1.077a12.93 12.93 0 001.197 2.034c.209.287.585.791.957.718.366-.07.343-.881.359-1.436.019-.63.068-1.458-.12-1.794-.174-.316-.513-.29-.837-.479.268-.526 1.017-.598 1.914-.598.753 0 1.737-.12 2.034.359.295.493.142 1.491.12 2.153-.023.744-.169 1.45.359 1.795.408-.043.603-.419.837-.718.52-.657.915-1.19 1.317-2.034.163-.352.3-.965.598-1.077.454-.163 1.13-.12 1.794-.12.548 0 1.502-.123 1.676.24.14.29-.228 1.107-.36 1.316-.505.797-1.012 1.341-1.555 2.034-.219.28-.627.635-.598 1.077.02.34.329.599.598.837.523.476 1.003.997 1.436 1.555.178.22.638.672.598.957-.11.891-2.99.59-2.991.599z" fill="#fff"/></svg>