<svg width="40" height="40" fill="none" xmlns="http://www.w3.org/2000/svg"><path d="M0 3.2A3.2 3.2 0 013.2 0h33.6A3.2 3.2 0 0140 3.2v33.6a3.2 3.2 0 01-3.2 3.2H3.2A3.2 3.2 0 010 36.8V3.2z" fill="#FF20A7"/><path d="M0 3.2A3.2 3.2 0 013.2 0h33.6A3.2 3.2 0 0140 3.2v33.6a3.2 3.2 0 01-3.2 3.2H3.2A3.2 3.2 0 010 36.8V3.2z" fill="url(#paint0_radial)"/><path d="M0 3.2A3.2 3.2 0 013.2 0h33.6A3.2 3.2 0 0140 3.2v33.6a3.2 3.2 0 01-3.2 3.2H3.2A3.2 3.2 0 010 36.8V3.2z" fill="url(#paint1_radial)"/><path fill-rule="evenodd" clip-rule="evenodd" d="M23.572 28.334h-7.143a4.797 4.797 0 01-3.367-1.375 4.661 4.661 0 01-1.395-3.32v-7.277c0-1.245.501-2.44 1.395-3.32a4.796 4.796 0 013.367-1.375h7.143a4.8 4.8 0 013.367 1.375 4.662 4.662 0 011.394 3.32v7.277c0 .616-.123 1.227-.362 1.797a4.69 4.69 0 01-1.032 1.523 4.767 4.767 0 01-1.545 1.017 4.821 4.821 0 01-1.822.358zm3.214-12.324c0-.779-.314-1.525-.872-2.075a2.998 2.998 0 00-2.104-.86h-7.738a3 3 0 00-2.105.86 2.914 2.914 0 00-.872 2.075v7.629c0 .778.314 1.524.872 2.075.558.55 1.315.86 2.104.86h7.739c.789 0 1.546-.31 2.104-.86s.872-1.297.872-2.075v-7.63zm-2.381.47a1.08 1.08 0 01-.595-.179 1.06 1.06 0 01-.395-.474 1.043 1.043 0 01.232-1.151 1.077 1.077 0 011.168-.23c.196.08.363.216.48.39a1.046 1.046 0 01-.133 1.334 1.08 1.08 0 01-.757.31zm-4.464 7.746c-.86 0-1.7-.252-2.415-.722a4.298 4.298 0 01-1.6-1.923 4.228 4.228 0 01-.247-2.475 4.266 4.266 0 011.189-2.194 4.364 4.364 0 012.225-1.172 4.403 4.403 0 012.51.244 4.333 4.333 0 011.95 1.578 4.24 4.24 0 01-.54 5.409 4.377 4.377 0 01-3.072 1.255zm0-7.043c-.554 0-1.095.162-1.555.465-.46.303-.818.734-1.03 1.238a2.721 2.721 0 00-.16 1.594c.109.535.375 1.026.766 1.412a2.835 2.835 0 003.049.598 2.79 2.79 0 001.256-1.016 2.73 2.73 0 00-.348-3.483 2.818 2.818 0 00-1.978-.808z" fill="#fff"/><defs><radialGradient id="paint0_radial" cx="0" cy="0" r="1" gradientUnits="userSpaceOnUse" gradientTransform="rotate(106.302 -9.52 23.122) scale(27.61)"><stop stop-color="#FFFCB2"/><stop offset=".234" stop-color="#FFB21C" stop-opacity=".818"/><stop offset="1" stop-color="#FF24BE" stop-opacity="0"/></radialGradient><radialGradient id="paint1_radial" cx="0" cy="0" r="1" gradientUnits="userSpaceOnUse" gradientTransform="matrix(4 15.25004 -35.76198 9.38018 9.5 0)"><stop stop-color="#2E62DF"/><stop offset="1" stop-color="#6E48D8" stop-opacity="0"/></radialGradient></defs></svg>