<svg viewBox="0 0 32 32" xmlns="http://www.w3.org/2000/svg"><defs><style>.cls-1{fill:#405eaa}</style></defs><g data-name="Layer 21" id="Layer_21"><path class="cls-1" d="M16 31a3 3 0 01-2.21-1C10.14 26 4 18.39 4 13.36A12.19 12.19 0 0116 1a12.19 12.19 0 0112 12.36c0 5-6.14 12.59-9.79 16.65A3 3 0 0116 31zm0-28A10.2 10.2 0 006 13.36c0 3.14 3.47 8.86 9.28 15.31a1 1 0 001.44 0C22.53 22.22 26 16.5 26 13.36A10.2 10.2 0 0016 3z"/><path class="cls-1" d="M16 19a6 6 0 116-6 6 6 0 01-6 6zm0-10a4 4 0 104 4 4 4 0 00-4-4z"/></g></svg>