<svg width="16" height="23" fill="none" xmlns="http://www.w3.org/2000/svg"><path fill-rule="evenodd" clip-rule="evenodd" d="M8 .799c-4.418 0-8 3.603-8 8.047C0 13.29 8 22.8 8 22.8s8-9.509 8-13.953C16 4.402 12.418.8 8 .8zm-.004 4.558c-.71 0-1.402.217-1.991.623a3.674 3.674 0 00-1.32 1.659 3.803 3.803 0 00-.204 2.135c.138.717.48 1.376.98 1.893.502.517 1.14.869 1.836 1.011.695.143 1.415.07 2.07-.21a3.61 3.61 0 001.609-1.361 3.779 3.779 0 00.604-2.054c0-.98-.378-1.92-1.05-2.613a3.53 3.53 0 00-2.534-1.083z" fill="#405EAA"/></svg>