<svg width="40" height="40" fill="none" xmlns="http://www.w3.org/2000/svg"><path d="M0 3.2A3.2 3.2 0 013.2 0h33.6A3.2 3.2 0 0140 3.2v33.6a3.2 3.2 0 01-3.2 3.2H3.2A3.2 3.2 0 010 36.8V3.2z" fill="#FF8600"/><path fill-rule="evenodd" clip-rule="evenodd" d="M23.244 22.242c-.773.541-1.831.647-2.523.723l.6.723 2.043 2.29c.325.354.445.972.12 1.325l-.12.12c-.326.354-.913.294-1.202 0-.565-.573-1.349-1.519-2.162-2.41l-2.162 2.41a.732.732 0 01-1.082 0l-.12-.12a1.021 1.021 0 010-1.325c.543-.596 1.23-1.405 2.043-2.29l.6-.723c-.69-.076-1.744-.178-2.523-.723-.91-.641-1.318-1.022-.96-1.807.205-.45.808-.771 1.561-.12 1.021.877 2.643.843 2.643.843s1.622.034 2.643-.844c.753-.65 1.356-.328 1.562.12.357.786-.05 1.167-.961 1.808zM20 19.952c-2.167 0-3.844-1.796-3.844-3.976C16.156 13.796 17.833 12 20 12c1.051 0 2.06.419 2.803 1.165a3.982 3.982 0 010 5.623A3.959 3.959 0 0120 19.953zm0-6.145c-1.16 0-2.042 1.003-2.042 2.17a2.013 2.013 0 001.254 1.903c.25.101.518.15.788.145 1.16 0 2.162-.883 2.162-2.048a2.217 2.217 0 00-.645-1.522A2.203 2.203 0 0020 13.807z" fill="#fff"/></svg>