<svg width="31" height="22" fill="none" xmlns="http://www.w3.org/2000/svg"><path fill-rule="evenodd" clip-rule="evenodd" d="M0 6.21v1.447h30.386V6.21H0z" fill="#405EAA"/><path d="M28.244 21.567H2.139a2.12 2.12 0 01-1.512-.623A2.165 2.165 0 010 19.428V2.973c0-.57.222-1.108.626-1.514A2.134 2.134 0 012.137.831h26.107c.57 0 1.106.222 1.511.624.408.41.631.947.631 1.518l-.003 16.455a2.132 2.132 0 01-.628 1.517 2.11 2.11 0 01-1.511.622zm.003-19.29H2.14a.695.695 0 00-.692.696v16.454a.684.684 0 00.693.692h26.104a.671.671 0 00.487-.197.684.684 0 00.206-.49l.002-16.46a.696.696 0 00-.692-.694z" fill="#405EAA"/><path d="M27.241 12.425H15.35v1.447h11.89v-1.447zm-5.223 2.517H15.35v1.447h6.668v-1.447zm-11.562 2.66a3.184 3.184 0 01-2.058-.753 3.187 3.187 0 01-2.06.753 3.197 3.197 0 01-3.192-3.194 3.197 3.197 0 013.192-3.195c.765 0 1.491.272 2.06.753a3.18 3.18 0 012.058-.753 3.199 3.199 0 013.196 3.195 3.199 3.199 0 01-3.196 3.194zm-2.057-2.553a.72.72 0 01.602.323c.326.49.87.783 1.455.783a1.75 1.75 0 001.749-1.748 1.75 1.75 0 00-1.75-1.748 1.74 1.74 0 00-1.453.784.723.723 0 01-1.206 0 1.748 1.748 0 100 1.928.724.724 0 01.603-.322z" fill="#405EAA"/></svg>