<svg width="20" height="20" fill="none" xmlns="http://www.w3.org/2000/svg"><path fill-rule="evenodd" clip-rule="evenodd" d="M3.407 5.035s-.035-.912.544-2.092c.408-.834 1.997-1.295 1.997-1.295s.68-.173 2.046 1.146a3.1 3.1 0 01.973 1.918c.05.67-1.38 2.1-1.38 2.1a4.35 4.35 0 00.988 2.227 35.3 35.3 0 002.038 2.15c.435.408.92.941 1.566 1.37 1.271.842 1.576.765 1.576.765s1.81-1.516 2.352-1.463c.412.041.995.313 1.74.949.555.47.91.827 1.187 1.303.1.164.177.34.232.524 0 0 .073.752-1.095 1.95-1.163 1.19-2.767.878-2.767.878s-.922-.137-2.43-.847a16.617 16.617 0 01-4.502-3.22c-1.223-1.264-2.825-3.196-3.605-4.54-.981-1.69-1.46-3.823-1.46-3.823z" fill="#405EAA"/></svg>