<svg width="20" height="20" fill="none" xmlns="http://www.w3.org/2000/svg"><path d="M18.333 14.1v2.5a1.667 1.667 0 01-1.816 1.667 16.492 16.492 0 01-7.192-2.559 16.25 16.25 0 01-5-5 16.491 16.491 0 01-2.558-7.225 1.667 1.667 0 011.658-1.816h2.5A1.667 1.667 0 017.592 3.1c.105.8.301 1.586.583 2.342A1.667 1.667 0 017.8 7.2L6.742 8.258a13.333 13.333 0 005 5L12.8 12.2a1.666 1.666 0 011.758-.375c.757.282 1.542.478 2.342.583a1.667 1.667 0 011.433 1.692z" stroke="#405EAA" stroke-width="2" stroke-linecap="round" stroke-linejoin="round"/></svg>