<svg width="28" height="35" fill="none" xmlns="http://www.w3.org/2000/svg"><path fill-rule="evenodd" clip-rule="evenodd" d="M13.353.13L.821 6.56A1.314 1.314 0 000 7.772c0 6.677.87 11.846 2.946 16.149 2.1 4.328 5.409 7.716 10.286 10.856.41.297.966.297 1.377 0 4.877-3.14 8.185-6.529 10.286-10.856 2.077-4.303 2.946-9.472 2.946-16.15 0-.543-.338-1.013-.821-1.211L14.488.13a1.305 1.305 0 00-1.135 0zM2.535 8.563l11.373-5.812 11.397 5.812c-.072 5.91-.869 10.461-2.68 14.195-1.787 3.685-4.588 6.653-8.717 9.398-4.105-2.745-6.906-5.713-8.692-9.398-1.811-3.734-2.608-8.284-2.68-14.195zm17.592 6.045a1.5 1.5 0 10-2.072-2.17l-4.797 4.58-1.881-1.796a1.5 1.5 0 10-2.072 2.17l2.917 2.784 1.036.989 1.035-.99 5.834-5.567z" fill="#405EAA"/></svg>