<svg width="17" height="10" fill="none" xmlns="http://www.w3.org/2000/svg"><path fill-rule="evenodd" clip-rule="evenodd" d="M13.826 9.953H13.7c-.865-.142-1.4-.755-1.902-1.325-.288-.32-.752-1.146-1.269-1.06-.734.121-.325 1.44-.634 1.988-.245.437-1.305.344-2.03.265-2.295-.247-3.54-1.447-4.566-2.783C2.197 5.612 1.404 4.049.634 2.4.381 1.86 0 1.333 0 .677.373.371 1.035.412 1.649.412c.517 0 1.268-.062 1.649.133.225.117.452.797.634 1.192.356.79.781 1.544 1.269 2.253.221.318.62.877 1.014.795.388-.078.364-.976.381-1.59.02-.699.072-1.615-.127-1.988-.185-.349-.544-.321-.888-.53C5.866.094 6.66.015 7.611.015c.797 0 1.841-.132 2.156.397.313.547.15 1.652.127 2.385-.024.824-.179 1.606.38 1.988.433-.047.64-.464.889-.795.55-.728.97-1.319 1.395-2.253.173-.39.319-1.069.634-1.192.481-.182 1.199-.133 1.903-.133.58 0 1.591-.137 1.776.265.149.321-.241 1.226-.38 1.458-.536.882-1.074 1.486-1.65 2.253-.232.31-.665.703-.634 1.192.02.377.348.664.634.928a13.427 13.427 0 011.522 1.722c.189.244.676.745.634 1.06-.117.987-3.17.654-3.17.663z" fill="#405EAA"/></svg>