<svg width="20" height="20" fill="none" xmlns="http://www.w3.org/2000/svg"><path fill-rule="evenodd" clip-rule="evenodd" d="M5.422 7.763a2.55 2.55 0 01.26-1.328 1.75 1.75 0 01.258-.456c.193-.26.45-.466.748-.596 0 0 .884-.086.96.032a13.2 13.2 0 011.024 2.224c.135.505-.575 1.08-.575 1.08s-.45.23 0 .795c.335.422.905 1.158 1.248 1.43.362.295.747.56 1.151.794.837.463.993.413.993.413s.154.063.574-.508c.225-.303.471-.659.705-.73.27-.083 2.455 1.167 2.368 1.08.153.153.033.646.033.646s.047.55-.786 1.186c-.548.42-1.455.52-1.455.52a5.572 5.572 0 01-1.664-.382c-.887-.333-1.823-.613-3.04-1.715a12.264 12.264 0 01-2.18-2.608c-.64-1.099-.622-1.877-.622-1.877zm4.77 11.792a9.815 9.815 0 01-4.837-1.266L0 20l1.76-5.21A9.748 9.748 0 013.17 2.941a9.845 9.845 0 0111.859-1.669 9.79 9.79 0 014.202 4.71c.84 1.99.997 4.2.445 6.287a9.775 9.775 0 01-3.497 5.252 9.837 9.837 0 01-5.987 2.034zm-.016-17.89A8.216 8.216 0 005.9 2.845a8.175 8.175 0 00-3.03 3.227 8.137 8.137 0 00.599 8.488l-.78 2.358.002.002-.228.665 1.325-.392a.033.033 0 00-.008-.006l1.818-.57a8.225 8.225 0 007.333.932 8.211 8.211 0 003.191-2.055 8.168 8.168 0 002.157-7.045 8.161 8.161 0 00-1.497-3.48 8.2 8.2 0 00-2.909-2.435 8.232 8.232 0 00-3.698-.869z" fill="#00C232"/></svg>