<svg width="40" height="40" fill="none" xmlns="http://www.w3.org/2000/svg"><path d="M0 3.2A3.2 3.2 0 013.2 0h33.6A3.2 3.2 0 0140 3.2v33.6a3.2 3.2 0 01-3.2 3.2H3.2A3.2 3.2 0 010 36.8V3.2z" fill="#00C232"/><path fill-rule="evenodd" clip-rule="evenodd" d="M16.428 18.007a2.084 2.084 0 01.213-1.085 1.43 1.43 0 01.21-.372 1.52 1.52 0 01.611-.486s.722-.07.784.026c.335.578.614 1.186.836 1.816.11.412-.47.883-.47.883s-.367.186 0 .648c.274.345.74.946 1.02 1.168.295.241.61.458.94.65.683.377.81.337.81.337s.126.05.47-.415c.183-.248.384-.539.575-.598.22-.067 2.005.954 1.934.883.125.125.027.528.027.528s.038.45-.641.969c-.448.342-1.19.424-1.19.424a4.55 4.55 0 01-1.358-.312c-.724-.272-1.49-.5-2.482-1.4a10.004 10.004 0 01-1.78-2.13c-.523-.898-.509-1.534-.509-1.534zm3.895 9.631a8.015 8.015 0 01-3.95-1.034L12 28.002l1.437-4.255a7.962 7.962 0 011.151-9.678 8.04 8.04 0 019.684-1.363 7.996 7.996 0 013.433 3.847 7.959 7.959 0 01.364 5.135 7.983 7.983 0 01-2.856 4.289 8.033 8.033 0 01-4.89 1.662zm-.013-14.611a6.71 6.71 0 00-3.49.964 6.677 6.677 0 00-2.475 2.636 6.646 6.646 0 00.489 6.931l-.638 1.927.002.001-.186.544 1.082-.32a.025.025 0 00-.006-.006l1.484-.465a6.718 6.718 0 008.595-.918 6.673 6.673 0 001.761-5.754 6.666 6.666 0 00-1.222-2.842 6.697 6.697 0 00-2.376-1.989 6.724 6.724 0 00-3.02-.709z" fill="#fff"/></svg>