<svg width="40" height="40" fill="none" xmlns="http://www.w3.org/2000/svg"><path d="M0 3.2A3.2 3.2 0 013.2 0h33.6A3.2 3.2 0 0140 3.2v33.6a3.2 3.2 0 01-3.2 3.2H3.2A3.2 3.2 0 010 36.8V3.2z" fill="#E44442"/><path fill-rule="evenodd" clip-rule="evenodd" d="M21.448 13.542h.965v3.084c0 .409-.027.83.482.83.32 0 .363-.306.363-.949v-2.965h.965v4.507h-.965v-.237l-.363-.119a.882.882 0 01-.24.356.616.616 0 01-.363.119 1.011 1.011 0 01-.483-.119.595.595 0 01-.24-.237 1.25 1.25 0 01-.121-.356c-.015-.144 0-.504 0-.949v-2.965zM18.19 15.44c0-.466-.078-.812 0-1.068.097-.24.265-.446.482-.593.205-.16.462-.245.724-.237.248-.014.495.026.724.119a.914.914 0 01.362.356c.106.144.187.304.242.474.073.271.113.55.12.83v.83c-.006.32-.047.638-.12.95-.043.21-.125.411-.242.593a.835.835 0 01-.362.355 1.38 1.38 0 01-.603.119 2.059 2.059 0 01-.724-.119.665.665 0 01-.362-.237 1.97 1.97 0 01-.241-.593c-.004.011 0-.518 0-.949v-.83zM15.897 12l.724 2.372c.138-.645.394-1.442.603-2.372h.724l-.844 3.559v2.49h-.845v-2.49L15.173 12h.724zM27.24 25.878a2.257 2.257 0 01-.71 1.4 2.33 2.33 0 01-1.462.617c-3.34.14-6.679.14-10.014 0-1.136-.073-2.168-.906-2.293-2.017a38.249 38.249 0 010-5.338c.124-1.11 1.157-2.057 2.293-2.135 3.34-.139 6.553-.139 9.894 0 1.134.078 2.167 1.025 2.292 2.135.126 1.777.126 3.56 0 5.338zm-7.722-8.184c.483 0 .362-.673.362-.83v-1.899c0-.474-.077-.825-.362-.83-.29-.005-.362.356-.362.83v1.898c0 .287-.007.83.362.83zm-5.55 3.202h.965v5.22h1.086v-5.22h.965v-.949h-3.016v.95zm4.826 3.44c0 .558-.109.652-.12.712a.354.354 0 01-.14.178.364.364 0 01-.223.059c-.158 0-.203-.1-.24-.237-.017-.058 0-.181 0-.712v-2.965h-.966v3.914c.02.201.06.4.12.593a.575.575 0 00.242.237.62.62 0 00.362.119.67.67 0 00.362-.119.912.912 0 00.241-.356l.362.119v.237h.845v-4.744h-.845v2.965zm4.102-2.728a.605.605 0 00-.24-.237 1.281 1.281 0 00-.483-.119c-.12 0-.138.056-.242.119-.036.023-.603.711-.603.711v-2.135h-.965v6.168h.965v-.237l.12-.356.242.237c.092.149.134.285.241.356a.73.73 0 00.362.119c.304 0 .5-.203.603-.475a2.5 2.5 0 00.121-.593v-3.202a1.107 1.107 0 00-.12-.356zm-.844 2.847c0 .438.002.59 0 .593a.363.363 0 01-.357.23.39.39 0 01-.367-.23c-.022-.065 0-.192 0-.593v-1.186c0-.418-.02-.654 0-.712a.399.399 0 01.58-.174.376.376 0 01.144.174c.02.064 0 .317 0 .712v1.186zm2.534-.593h1.689v-.475c0-.461-.034-1.058-.12-1.305-.081-.238-.278-.332-.483-.474a1.181 1.181 0 00-.724-.237c-.255 0-.53.002-.724.118a1.31 1.31 0 00-.483.593c-.09.229-.12.607-.12 1.186v1.424a1.93 1.93 0 00.314 1.086c.12.14.275.248.45.313.215.092.448.14.683.143a.85.85 0 00.483-.119c.156-.08.378-.194.483-.356.212-.539.241-.356.241-1.186v-.237h-.965v.475c0 .267.038.488 0 .593a.383.383 0 01-.362.237c-.303.004-.362-.292-.362-.712v-1.067zm0-1.187c0-.388-.018-.303 0-.355.03-.07.08-.13.144-.173a.397.397 0 01.58.173c.017.054 0-.006 0 .355v.712h-.724v-.712z" fill="#fff"/></svg>