<svg width="89" height="105" fill="none" xmlns="http://www.w3.org/2000/svg"><path d="M24.277 26.238a3.346 3.346 0 00-3.345 3.346v3.707a3.346 3.346 0 003.346 3.346h4.014v-10.4h-4.015zm42.841 7.053v-3.707a3.346 3.346 0 00-3.345-3.346h-4.007v10.4h4.007a3.346 3.346 0 003.345-3.347z" fill="#F6E2BF"/><path d="M31.415 61.05l-.222.4a30.23 30.23 0 001.491 13.217l9.871 26.602 1.47 2.193 1.47-2.193 9.866-26.59a30.24 30.24 0 001.496-13.228l-.222-.401a3.179 3.179 0 01-1.497-2.698V43.805H32.912v14.547a3.179 3.179 0 01-1.497 2.698z" fill="#FAEFDB"/><path d="M42.555 101.269l1.47 2.193 1.47-2.193 9.866-26.59a30.24 30.24 0 001.496-13.228l-.222-.401a3.166 3.166 0 01-.497-.383l-12.113 9.417-12.113-9.417a3.194 3.194 0 01-.497.383l-.222.4a30.23 30.23 0 001.491 13.217l9.871 26.602z" fill="#F7F4F7"/><path d="M44.026 70.084l-5.874 2.964 2.963 6.318h5.821l2.962-6.318-5.872-2.964z" fill="#DB636E"/><path d="M46.935 79.366h-5.821l-3.48 18.202 6.39 5.894 6.39-5.894-3.479-18.202z" fill="#E07F84"/><path d="M30.14 61.506l1.135 15.014 12.752-6.435-12.114-9.418a3.173 3.173 0 01-1.772.839z" fill="#E0DDE0"/><path d="M56.777 76.52l5.594-14.374a160.67 160.67 0 00-4.46-.64 3.175 3.175 0 01-1.772-.84l-12.114 9.418 12.752 6.436z" fill="#B2CED3"/><path d="M64.736 73.187c-1.3-.578-4.275-1.384-7.597-2.187l-.17-.082-12.944 32.544h29.891V87.323c0-6.111-3.597-11.65-9.18-14.136z" fill="#756E78"/><path d="M56.777 76.52l1.134-15.015a3.175 3.175 0 01-1.772-.839l-12.114 9.418 12.752 6.436z" fill="#E0DDE0"/><path d="M77.33 65.841c-4.256-1.895-11.683-3.225-16.764-3.969l-3.806 9.57c3.322.803 6.297 1.609 7.597 2.187a15.474 15.474 0 019.18 14.136v15.697h8.5a4.473 4.473 0 004.473-4.473V79.977c0-6.111-3.597-11.65-9.18-14.136z" fill="#665E66"/><path d="M10.719 65.841a15.474 15.474 0 00-9.18 14.136V98.99a4.473 4.473 0 004.473 4.473h38.013l-16.542-41.59c-5.081.743-12.508 2.074-16.764 3.97z" fill="#756E78"/><path d="M31.911 60.666l-5.284 1.14a5.998 5.998 0 00-4.617 4.686l-1.105 5.522a2.839 2.839 0 002.436 3.375c2.189.27 3.075 2.966 1.472 4.481l-.936.886a2.839 2.839 0 00-.072 4.055l20.22 18.651-10.76-28.997a29.47 29.47 0 01-1.354-13.799zm24.229 0l5.283 1.14a5.998 5.998 0 014.617 4.686l1.105 5.522a2.839 2.839 0 01-2.436 3.375c-2.189.27-3.074 2.966-1.472 4.481l.937.886a2.839 2.839 0 01.072 4.055l-20.22 18.651 10.759-28.997a29.47 29.47 0 001.354-13.799z" fill="#89808C"/><path d="M46.509 49.341c3.686-3.174 6.36-7.848 6.465-12.704l.004-31.098a19.593 19.593 0 00-4.365-1.674l-.005-.002a19.544 19.544 0 00-4.583-.586c-10.733.12-20.1 9.034-18.034 20.441l.456 2.52v10.4a17.358 17.358 0 005.99 12.704c2.336 2.011 4.38 3.384 6.8 4.143l.005.001c.348.11.724.087 1.058-.058 2.274-.983 4.505-2.62 6.209-4.087z" fill="#FAEFDB"/><path d="M52.185 5.142l-.006 31.495c-.104 4.856-2.778 9.53-6.464 12.704-1.988 1.712-3.826 3.277-6.479 4.143 1.429.45 2.981.684 4.789.705 5.51-.062 8.145-2.292 11.112-4.848 3.687-3.174 6.36-7.848 6.465-12.704l.008-10.4.46-2.557c1.461-8.14-2.951-15.269-9.885-18.538z" fill="#F6E2BF"/><path d="M44.202 14.046c1.646 0 3.328-.186 5.003-.579 1.696-.399 2.605-.84 3.772-1.085l.001-10.007a.824.824 0 00-.784-.825h-.008a12.88 12.88 0 00-.557-.012H36.416c-7.556 0-13.682 6.126-13.682 13.682v11.394h2.598a3.727 3.727 0 003.727-3.727v-7.111a3.587 3.587 0 013.587-3.587h.773c3.426 0 5.097 1.857 10.783 1.857z" fill="#EFC984"/><path d="M65.312 15.221c-.001-7.37-5.828-13.38-13.126-13.672l-.002 11.035c.796-.234 1.598-.395 2.8-.395h.418a3.587 3.587 0 013.587 3.587v7.112a3.727 3.727 0 003.728 3.727h2.597l-.002-11.394z" fill="#E8AE4D"/><path d="M77.956 64.436c-3.136-1.397-8.175-2.657-14.972-3.748a7.546 7.546 0 00-1.238-.386l-4.79-1.033a1.623 1.623 0 01-.28-.917v-8.323c3.542-3.262 5.839-7.565 6.355-11.854h.74a4.89 4.89 0 004.885-4.884v-3.707a4.868 4.868 0 00-1.804-3.79v-5.297a1.538 1.538 0 00-3.077 0l.001 4.58c-.905-.02-1.21.054-1.703-.097a2.179 2.179 0 01-1.545-2.093v-7.111c0-2.826-2.3-5.126-5.125-5.126h-.419c-3.974 0-5.105 1.858-10.782 1.858-5.624 0-6.84-1.857-10.783-1.857h-.773a5.131 5.131 0 00-5.125 5.125v7.111a2.18 2.18 0 01-1.539 2.091c-.497.154-.807.079-1.71.098V15.22c0-6.696 5.448-12.144 12.144-12.144H51.63c6.023 0 11.194 4.491 12.027 10.447a1.539 1.539 0 003.047-.426C65.657 5.63 59.177 0 51.629 0H36.416c-8.392 0-15.22 6.827-15.22 15.22v10.574a4.867 4.867 0 00-1.803 3.79v3.708a4.89 4.89 0 004.884 4.883h.725a18.818 18.818 0 006.372 12.28v7.897c0 .334-.1.65-.282.918l-4.79 1.033c-.428.092-.84.224-1.238.385-6.797 1.091-11.835 2.352-14.972 3.748A17.028 17.028 0 000 79.977v4.547a1.538 1.538 0 003.076 0v-4.547a13.95 13.95 0 018.267-12.73c2.145-.956 5.453-1.88 9.7-2.72a7.526 7.526 0 00-.542 1.664l-1.105 5.522a4.38 4.38 0 003.756 5.203c.895.11 1.264 1.213.603 1.837l-.936.886c-1.883 1.78-1.753 4.748-.058 6.303l17.328 15.982H18.378v-6.572a1.538 1.538 0 00-3.076 0v6.572h-9.29a2.938 2.938 0 01-2.936-2.935v-7.254a1.538 1.538 0 00-3.076 0v7.254A6.018 6.018 0 006.011 105h76.026a6.018 6.018 0 006.011-6.011V79.977a17.028 17.028 0 00-10.092-15.541zm-16.858-1.127a4.459 4.459 0 013.433 3.485l1.105 5.523a1.3 1.3 0 01-1.116 1.546c-3.482.429-4.886 4.718-2.34 7.125l.937.886a1.3 1.3 0 01.053 1.836L47.7 97.98 56.226 75l.01-.03a31.167 31.167 0 001.652-12.353l3.21.692zm-17.09-7.582h.033c4.416-.05 7.229-1.428 9.558-3.144v5.769c0 .693.157 1.374.446 1.994l-10.02 7.79-10.021-7.79c.289-.62.445-1.3.445-1.994v-5.504c2.417 1.608 5.365 2.831 9.558 2.879zM42.09 77.828l-1.913-4.08 3.846-1.94 3.847 1.94-1.913 4.08H42.09zm7.37 6.561l-.922-4.822 2.079-4.432 1.918.968-3.075 8.286zm4.126-11.201l-6.7-3.381 7.972-6.198a28.098 28.098 0 01-1.272 9.579zM41.16 69.807l-6.7 3.38a28.096 28.096 0 01-1.271-9.578l7.971 6.198zm-3.73 5.328l2.078 4.432-.921 4.822-3.075-8.286 1.918-.968zm4.955 5.77h3.277l1.731 9.055-3.37 9.081-3.37-9.081 1.731-9.056zm22.488-52.752c.44.339.706.862.706 1.43v3.708a1.81 1.81 0 01-1.808 1.808h-.63l.004-6.946h1.728zM22.469 33.29v-3.707c0-.57.266-1.093.706-1.432h1.733V35.1h-.63a1.81 1.81 0 01-1.809-1.808zm5.516 3.329v-9.184a5.238 5.238 0 002.612-4.549v-7.111c0-1.13.92-2.05 2.049-2.05h.773c2.993 0 4.877 1.858 10.782 1.858 5.926 0 7.72-1.857 10.783-1.857h.419c1.13 0 2.049.919 2.049 2.049v7.111a5.236 5.236 0 002.62 4.553l-.008 9.18c-.094 4.12-2.31 8.438-5.93 11.556-2.865 2.466-5.128 4.414-10.11 4.474-4.6-.055-7.496-1.815-10.584-4.474a15.734 15.734 0 01-5.455-11.556zm-3.053 45.254l.937-.886c2.549-2.41 1.137-6.697-2.34-7.125a1.3 1.3 0 01-1.116-1.546l1.104-5.523a4.459 4.459 0 013.434-3.485l3.21-.692A31.167 31.167 0 0031.823 75l8.527 22.98-15.47-14.27a1.3 1.3 0 01.053-1.836zm60.04 17.115a2.939 2.939 0 01-2.935 2.935h-9.29v-6.572a1.538 1.538 0 00-3.076 0v6.572H47.96L65.288 85.94c1.686-1.546 1.834-4.514-.058-6.302l-.937-.886c-.656-.62-.3-1.727.603-1.838a4.38 4.38 0 003.756-5.202l-1.105-5.522a7.536 7.536 0 00-.542-1.664c4.247.84 7.555 1.764 9.7 2.719a13.95 13.95 0 018.267 12.731v19.012z" fill="#343A56"/><path d="M51.5 30c-.828 0-1.5.536-1.5 1.197v1.606c0 .661.672 1.197 1.5 1.197s1.5-.536 1.5-1.197v-1.606c0-.661-.672-1.197-1.5-1.197zM36 30c-.552 0-1 .536-1 1.197v1.606c0 .661.448 1.197 1 1.197s1-.536 1-1.197v-1.606c0-.661-.448-1.197-1-1.197zm-3.688-3.174c-.416.497-.416 1.304 0 1.8.415.498 1.089.498 1.504 0 1.204-1.44 3.164-1.44 4.368 0a.98.98 0 00.752.374.98.98 0 00.752-.373c.416-.497.416-1.304 0-1.801-2.033-2.435-5.343-2.435-7.376 0zm15.038 0a1.332 1.332 0 000 1.8 1.146 1.146 0 001.693 0c1.355-1.44 3.559-1.44 4.914 0 .234.25.54.374.846.374.306 0 .613-.124.847-.373a1.332 1.332 0 000-1.801c-2.288-2.435-6.011-2.435-8.3 0zm-2.028 8.312c-.828.46-1.816.46-2.644 0-.567-.316-1.263-.07-1.552.55-.29.62-.063 1.378.504 1.693A4.869 4.869 0 0044 38c.814 0 1.628-.206 2.37-.619.568-.315.793-1.074.504-1.693-.29-.62-.984-.866-1.552-.55zM46.824 47c.65 0 1.176-.448 1.176-1s-.527-1-1.176-1h-5.648c-.65 0-1.176.448-1.176 1s.527 1 1.176 1h5.648z" fill="#343A56"/></svg>