<svg width="89" height="105" fill="none" xmlns="http://www.w3.org/2000/svg"><path d="M13.162 84.98l-.695.796c-3.058.872-7.792 5.025-8.722 10.393l-1.042 5.282 4.227 1.539h7.04l.394-.596 15.208-.016.481.612H42.61l1.588-.612 1.474.612h12.556l1.22-.612h14.107l.756.612h11.343a1.02 1.02 0 001.006-1.195l-.96-5.536a15.286 15.286 0 00-9.776-11.746l-.866.076-61.895.391z" fill="#ECEAEC"/><path d="M7.39 100.342c.56-3.98 1.707-7.264 5.498-9.728l.518-3.357-1.046-2.701A15.286 15.286 0 002.694 96.26l-.96 5.536a1.02 1.02 0 001.006 1.195h4.19l.46-2.649z" fill="#DEDBDF"/><path d="M46.182 87.352h-3.879L31.678 72.427h24.989L46.182 87.352z" fill="#F2BB88"/><path d="M74.06 84.485h0c.447.115.892.242 1.332.38l-1.539 17.626H58.774l.538-6.164 5.965-14.085 8.783 2.243zm-60.663 6.203l1.175-2.93 13.288-4.134 1.648 18.867h-15.08l-1.03-11.803z" fill="#717ED4" stroke="#405EAA"/><mask id="a" fill="#fff"><path d="M23.298 81.651l-9.966 2.574a13.221 13.221 0 00-.97.33l.528 6.059a14.168 14.168 0 014.525-2.306l8.703-2.248a13.71 13.71 0 002.382-.858l-5.202-3.55z"/></mask><path d="M23.298 81.651l-9.966 2.574a13.221 13.221 0 00-.97.33l.528 6.059a14.168 14.168 0 014.525-2.306l8.703-2.248a13.71 13.71 0 002.382-.858l-5.202-3.55z" fill="#5766CC"/><path d="M23.298 81.651l.564-.826-.374-.255-.44.113.25.968zm-9.966 2.574l-.25-.968-.018.005-.018.005.286.958zm-.435.138l.317.948h.001l-.318-.948zm-.536.192v1h.185l.172-.066-.357-.934zm0 0v-1h-1.09l.094 1.086.996-.087zm.53 6.059l-.997.087.158 1.81 1.445-1.102-.607-.795zm4.524-2.306l-.25-.968-.02.005-.019.006.289.957zm8.703-2.248l-.25-.968.25.968zm2.382-.858l.424.905 1.588-.743-1.448-.988-.564.826zm-5.452-4.519l-9.966 2.574.5 1.937 9.966-2.575-.5-1.936zm-10.002 2.584c-.15.045-.307.094-.468.148l.637 1.896c.136-.046.27-.088.402-.127l-.57-1.917zm-.466.148c-.2.066-.392.135-.575.205l.713 1.869c.158-.06.323-.12.496-.178l-.635-1.896zm-.219.14v2-2zm0 0v2-2zm-.996 1.086l.529 6.06 1.992-.174-.528-6.06-1.993.174zm2.132 6.768a13.169 13.169 0 014.206-2.143l-.577-1.915a15.168 15.168 0 00-4.843 2.468l1.214 1.59zm4.168-2.133l8.703-2.248-.5-1.936-8.703 2.248.5 1.936zm8.703-2.248c.893-.23 1.746-.541 2.556-.92l-.847-1.812c-.703.329-1.44.598-2.209.796l.5 1.936zm2.696-2.652l-5.202-3.55-1.127 1.651 5.202 3.55 1.127-1.651z" fill="#405EAA" mask="url(#a)"/><path d="M23.969 82.561l.497 3.926 2.336 9.664a.617.617 0 00.625.47c8.404-.354 16.77-9.269 16.77-9.269L33.378 71.934c0 6.11-4.098 9.186-9.41 10.627z" fill="#F9F8F9"/><path d="M26.117 86.06a13.7 13.7 0 009.947-10.3l-3.788-5.4c0 6.111-3.667 9.85-8.98 11.291l1.17 4.836 1.65-.427z" fill="#ECEAEC"/><path d="M64.981 81.651l-3.504 14.5a.616.616 0 01-.625.469c-8.4-.353-16.657-9.268-16.657-9.268l11.808-16.991c0 6.11 3.666 9.849 8.978 11.29z" fill="#F9F8F9"/><path d="M17.967 40.625h-1.343c-3.491 0-6.321 2.38-6.321 5.317 0 4.051 3.903 7.335 8.718 7.335h50.352c4.815 0 8.718-3.284 8.718-7.335 0-2.937-2.83-5.317-6.32-5.317H17.966z" fill="#F2BB88"/><path d="M70.357 30.928l-.046 6.265c0 7.635-.102 12.214-1.637 16.37-.695 1.884-1.684 3.68-3.092 5.635C59.356 67.846 51.6 73.72 44.197 73.72c-7.403 0-15.16-5.874-21.386-14.522-1.486-2.064-2.506-3.952-3.206-5.951-1.426-4.075-1.523-8.613-1.523-16.054l.036-6.265h52.239z" fill="#F2D1A5"/><path d="M60.533 57.746c-3.07.907-6.348.884-9.406-.065-1.676-.52-3.655-1.031-6.93-1.031-3.234 0-5.197.498-6.853 1.01-3.11.963-6.449.98-9.554 0-4.907-1.547-8.184-4.414-8.184-4.414l2.283 10.006A16.328 16.328 0 0032.49 75.06c3.48 1.198 7.61 2.207 11.65 2.207 4.057 0 8.19-1.016 11.662-2.221a16.339 16.339 0 0010.547-11.668l2.326-9.816s-3.227 2.733-8.142 4.183z" fill="#8C5E5E"/><path d="M49.095 5.002h-9.8c-.1 0-.205-.002-.305 0 0 0-19.765 1.5-19.765 21.23l.608 1.032H69.73l-.174-1.668c0-1.87.527-3.048.073-4.776-2.394-9.104-10.68-15.818-20.535-15.818z" fill="#F7E242"/><path d="M38.99 5.002c-9.804.153-18.02 6.953-20.298 16.091l-.11 4.642 3.566.498c0-10.21 7.238-19.103 16.842-21.231z" fill="#F7D80F"/><path d="M68.806 20.454c-4.999-2.507-11.62-4.248-19.04-4.828a.613.613 0 01-.567-.61V3.981a2.45 2.45 0 00-2.45-2.45h-5.308a2.45 2.45 0 00-2.45 2.45v11.068a.613.613 0 01-.562.61c-5.58.469-10.693 1.597-14.99 3.211l-3.03 3.634 1.737 4.75h47.77c.138 0 .275-1.021.412-1.021a21.274 21.274 0 00-.696-5.413l-.826-.366z" fill="#FCEF66"/><path d="M19.62 20.54l-.927.553a21.32 21.32 0 00-.627 5.14l1.977 1.02 2.106-1.02c0-2.566.456-5.05 1.29-7.363a37.666 37.666 0 00-3.818 1.67z" fill="#F7E242"/><path d="M22.146 26.233h50.121a3.266 3.266 0 110 6.532H22.146c-1.804 0-2.068-1.462-2.068-3.266s.264-3.266 2.068-3.266z" fill="#F7E242"/><path d="M16.33 26.233a3.266 3.266 0 100 6.532h5.815v-6.532H16.33z" fill="#F7D80F"/><path d="M88.375 102.729l-1.167-6.732c-1.094-6.318-5.606-11.404-11.704-13.238-.175-.053-9.54-2.469-9.61-2.483-2.366-.482-5.438-1.882-7.143-4.84a17.768 17.768 0 009.087-11.704l2.118-8.94c5.381-.262 9.666-4.131 9.666-8.85 0-3.756-3.485-6.815-7.783-6.847-.005-.714.02-3.964.033-4.8h.394a4.803 4.803 0 004.798-4.797 4.803 4.803 0 00-4.798-4.797h-.46a22.607 22.607 0 00-6.512-14.46 22.609 22.609 0 00-14.593-6.714A3.985 3.985 0 0046.748 0h-5.307a3.985 3.985 0 00-3.956 3.543 22.62 22.62 0 00-14.468 6.78 22.62 22.62 0 00-6.43 14.379h-.256a4.803 4.803 0 00-4.797 4.797 4.803 4.803 0 004.797 4.797h.243c-.012 1.57-.03 3.107-.02 4.8-4.298.032-7.783 3.09-7.783 6.847 0 4.705 4.26 8.563 9.618 8.847l2.007 8.803a17.91 17.91 0 001.145 3.4 1.531 1.531 0 002.789-1.264 14.837 14.837 0 01-.948-2.817l-1.41-6.177c1.426.83 3.248 1.72 5.357 2.386 3.394 1.07 7.014 1.07 10.467.002 1.472-.456 3.303-.941 6.4-.941 3.115 0 4.977.496 6.477.962a17.711 17.711 0 0010.293.072 26.612 26.612 0 005.327-2.244l-1.434 6.055a14.739 14.739 0 01-9.56 10.574c-4.086 1.417-7.84 2.136-11.159 2.136-3.308 0-7.06-.714-11.152-2.123a14.728 14.728 0 01-4.652-2.622 1.531 1.531 0 00-1.96 2.352 17.78 17.78 0 003.15 2.099c-1.636 2.871-4.615 4.208-7.027 4.833-.477.123-9.521 2.457-9.61 2.483-6.125 1.847-10.61 6.92-11.703 13.238l-1.168 6.732c-.13.678.459 1.79 1.51 1.793.731 0 1.378-.525 1.507-1.27l1.168-6.733c.721-4.167 3.245-7.671 6.82-9.664l1.421 16.268c.04.587.707 1.438 1.659 1.392a1.53 1.53 0 001.392-1.658l-1.504-17.221 8.183-2.114L25.43 96.99a1.53 1.53 0 001.488 1.171c.392 0 .783-.018 1.172-.051l.438 5.013c.04.586.707 1.438 1.659 1.392a1.53 1.53 0 001.392-1.658l-.463-5.304c4.666-1.3 8.897-4.415 11.493-6.654v12.091a1.53 1.53 0 103.063 0V90.899c2.596 2.239 6.827 5.354 11.493 6.655l-.463 5.303c-.072.654.536 1.644 1.527 1.664a1.53 1.53 0 001.523-1.398l.438-5.013c.39.033.781.052 1.173.052.706 0 1.322-.485 1.488-1.172l.794-3.284a1.531 1.531 0 00-2.977-.72l-.495 2.048c-5.932-.637-11.863-5.782-14.041-7.86l6.717-9.62a48.546 48.546 0 003.066-.93c1.446 2.784 3.916 4.85 7.244 6.056l-.808 3.345a1.531 1.531 0 002.976.72l.785-3.25 8.18 2.112-1.507 17.25c-.071.654.536 1.644 1.527 1.665a1.53 1.53 0 001.523-1.398l1.426-16.329c3.633 1.983 6.2 5.515 6.93 9.725l1.167 6.732c.097.58.835 1.404 1.77 1.247a1.531 1.531 0 001.248-1.77zM76.56 45.942c0 2.789-2.449 5.124-5.701 5.678.658-2.727.877-5.732.949-9.464 2.624.017 4.752 1.709 4.752 3.786zm-9.616-28.01c-4.65-1.91-10.268-3.22-16.215-3.761V6.6c7.174.596 13.286 5.09 16.215 11.332zm-46.88 4.07c2.058-.99 4.802-2.148 7.621-2.908a1.531 1.531 0 10-.825-2.949 46.498 46.498 0 00-5.444 1.883c2.891-6.218 8.942-10.74 16.044-11.409v7.59a66.748 66.748 0 00-3.423.418 1.531 1.531 0 00.452 3.03 64.6 64.6 0 014.617-.517 1.531 1.531 0 001.416-1.527V3.98a.92.92 0 01.919-.919h5.307a.92.92 0 01.919.919v11.603a1.53 1.53 0 001.424 1.527c7.137.482 14.128 2.233 19.22 4.79.207.912.35 1.847.425 2.8H19.658c.072-.917.21-1.818.406-2.698zm-8.23 23.94c0-2.078 2.127-3.769 4.75-3.786.072 3.745.29 6.74.95 9.464-3.253-.555-5.7-2.89-5.7-5.678zM60.1 56.278a14.656 14.656 0 01-8.52-.06c-1.714-.531-3.84-1.1-7.383-1.1-3.358 0-5.496.52-7.306 1.08-2.856.883-5.844.884-8.641.002-3.712-1.17-6.46-3.176-7.337-3.866-1.235-3.817-1.3-8.29-1.3-15.129l.023-2.909h35.25a1.531 1.531 0 000-3.062H16.332a1.737 1.737 0 01-1.735-1.735c0-.957.778-1.735 1.735-1.735h55.935c.957 0 1.735.778 1.735 1.735 0 .957-.778 1.735-1.735 1.735H62.045a1.531 1.531 0 000 3.062h6.765l-.03 2.897c0 6.992-.07 11.556-1.401 15.443-.873.663-3.558 2.543-7.28 3.642zM28.107 95.035L25.121 82.68c3.326-1.204 5.794-3.268 7.24-6.047 1.044.35 2.07.66 3.074.926l6.714 9.616c-2.175 2.08-8.097 7.224-14.042 7.86zM44.14 84.677l-4.336-6.21c1.504.22 2.952.332 4.336.332 1.386 0 2.834-.111 4.337-.332l-4.337 6.21z" fill="#343A56"/><path d="M54.115 42.468c-.846 0-1.531.686-1.531 1.531v2.055a1.531 1.531 0 003.062 0V44a1.53 1.53 0 00-1.53-1.53zm-19.835 0c-.846 0-1.532.686-1.532 1.531v2.055a1.531 1.531 0 003.062 0V44a1.53 1.53 0 00-1.53-1.53zM28.972 38.7a1.531 1.531 0 002.165 2.165 4.45 4.45 0 016.286 0 1.527 1.527 0 002.165 0 1.531 1.531 0 000-2.166c-2.926-2.927-7.69-2.926-10.616 0zm20.039 0a1.53 1.53 0 102.165 2.165 4.45 4.45 0 016.286 0 1.527 1.527 0 002.166 0 1.531 1.531 0 000-2.166c-2.927-2.926-7.69-2.927-10.617 0zM45.95 49.57a3.874 3.874 0 01-3.507 0 1.531 1.531 0 00-1.39 2.728 6.924 6.924 0 003.144.753c1.08 0 2.159-.251 3.143-.753a1.531 1.531 0 00-1.39-2.728zm1.922 15.144a1.531 1.531 0 000-3.063h-7.349a1.531 1.531 0 000 3.063h7.35z" fill="#343A56"/></svg>