<svg width="127" height="76" fill="none" xmlns="http://www.w3.org/2000/svg"><path d="M63.393 66c7.6-7 12.4-17 12.4-28 0-11.2-4.8-21.2-12.4-28C56.594 4 47.795.2 37.996.2 16.998.2 0 17.2 0 38c0 21 16.998 38 37.996 38 9.799-.2 18.598-4 25.397-10z" fill="#3362AB"/><path d="M63.394 66c7.599-7 12.398-17 12.398-28 0-11.2-4.8-21.2-12.398-28" fill="#3362AB"/><path d="M63.394 66c7.599-7 12.398-17 12.398-28 0-11.2-4.8-21.2-12.398-28" stroke="#3362AB" stroke-width=".31"/><path d="M88.79 0c-9.798 0-18.797 3.8-25.397 9.8-1.4 1.2-2.6 2.6-3.8 4h7.6c1 1.2 2 2.6 2.8 4H56.594c-.8 1.2-1.6 2.6-2.2 4h17.798c.6 1.4 1.2 2.6 1.6 4H52.795c-.4 1.4-.8 2.6-1.2 4h23.197c.6 2.6.8 5.2.8 8 0 4.2-.6 8.2-2 12H52.595c.4 1.4 1 2.8 1.6 4h17.798c-.6 1.4-1.4 2.8-2.2 4H56.394c.8 1.4 1.8 2.8 2.8 4h7.6c-1.2 1.4-2.4 2.8-3.8 4 6.799 6 15.598 9.8 25.397 9.8 20.998 0 37.796-17 37.796-38C126.787 17 109.789 0 88.791 0z" fill="#C9191B"/><path d="M33.197 47.2h-4.8l2.8-14.8-6.4 14.8h-4.199l-.8-14.6-2.8 14.6h-4.2l3.6-19.2h7.4l.4 12 5.2-12h7.598l-3.8 19.2zm52.794 0c-1.2.4-2.4.6-3.4.6-2.4 0-3.799-1.2-3.799-3.4 0-.4 0-1 .2-1.4l.2-1.6.2-1.2 2.2-12h4.6l-.6 3.6h2.399l-.6 3.8h-2.4l-1.2 6.6v.6c0 .8.6 1.2 1.6 1.2.6 0 1 0 1.2-.2l-.6 3.4zM99.59 31.8c-.4-.2-.4-.2-.6-.2h-1c-1.6 0-2.6.6-4.2 2.6l.4-2.4h-3.8l-2.8 15.6h4.8c1.6-9.6 2.4-11.2 4.6-11.2h.6l.6.2 1.4-4.6zm-32.397 4.8c0 2 1.2 3.4 3.6 4.4 2 .8 2.2 1 2.2 1.8 0 1-.8 1.4-2.8 1.4-1.4 0-2.8-.2-4.2-.6l-.6 3.6h.2l.8.2c.2 0 .8.2 1.2.2 1.2 0 2 .2 2.6.2 5 0 7.4-1.6 7.4-5.2 0-2.2-1-3.4-3.4-4.4-2-.8-2.2-1-2.2-1.8s.8-1.2 2.4-1.2c1 0 2.2 0 3.4.2l.6-3.6c-1.2-.2-3-.4-4.2-.4-5.2 0-7 2.4-7 5.2zm-21.998 3.8h-1c-2.6 0-4 .8-4 2.4 0 1 .6 1.6 1.6 1.6 1.8-.2 3.2-1.8 3.4-4zm3.4 6.8h-4l.2-1.6c-1.2 1.2-2.8 1.8-5 1.8-2.6 0-4.2-1.8-4.2-4.2 0-3.8 3-6 8.2-6 .6 0 1.2 0 2 .2.2-.6.2-.8.2-1 0-1-.8-1.4-3-1.4-1.4 0-2.8.2-3.8.4l-.6.2-.4.2.6-3.6c2.4-.6 3.8-.8 5.6-.8 4 0 6.2 1.6 6.2 4.6 0 .8 0 1.4-.4 3l-1 5.6-.2 1-.2.8v.6l-.2.2zm12.999-9.6v-.8c0-1.2-.8-2-2.2-2-1.6 0-2.6 1-3 2.8h5.2zm2.4 9.4c-1.6.4-3.2.6-4.8.6-5.199 0-7.999-2.4-7.999-7 0-5.4 3.4-9.4 8.2-9.4 3.799 0 6.399 2.2 6.399 5.6 0 1.2-.2 2.2-.6 3.8h-9.4v.4c0 1.8 1.4 2.8 4.2 2.8 1.6 0 3.2-.4 5-1l-1 4.2zm45.395-8.8c0-1.6-.6-3.2-2.6-3.2-2.4 0-3.8 2.8-3.8 5.4 0 2.2 1 3.6 2.8 3.6 1 0 3.2-1.4 3.6-3.8v-2zm4.999 2c-.8 5.2-4.399 7.6-9.199 7.6-5.4 0-7.399-3.2-7.399-7.2 0-5.6 3.6-9.2 9.199-9.2 5 0 7.399 3 7.399 7 .2.8.2.8 0 1.8z" fill="#fff"/></svg>