<svg width="128" height="77" fill="none" xmlns="http://www.w3.org/2000/svg"><path d="M127.124 38.141c0 20.929-17.015 38.141-38.137 38.141-20.927 0-38.137-17.212-38.137-38.141S67.865 0 88.79 0c21.318 0 38.333 17.212 38.333 38.141z" fill="#F9B50B"/><path d="M76.079 38.337c0-2.739-.392-5.477-.783-8.02H51.827c.196-1.369.587-2.543.978-4.107h20.927c-.391-1.37-.978-2.739-1.565-4.108H54.37c.587-1.369 1.369-2.543 2.151-4.107h13.495c-.782-1.37-1.76-2.739-2.934-4.108H59.65c1.174-1.369 2.347-2.543 3.912-3.912C56.912 3.716 47.916 0 37.942 0 17.21.587 0 17.212 0 38.141s17.015 38.141 38.137 38.141c9.974 0 18.775-3.912 25.62-9.975 1.37-1.174 2.543-2.543 3.912-4.108h-7.823a27.949 27.949 0 01-2.738-3.912h13.299c.782-1.173 1.565-2.542 2.151-4.107H54.761c-.587-1.174-1.174-2.543-1.565-4.108h20.927c1.173-3.52 1.956-7.432 1.956-11.735z" fill="#C8191C"/><path d="M51.632 47.92l.587-3.52c-.196 0-.587.196-.978.196-1.37 0-1.565-.783-1.37-1.174l1.174-7.041h2.151l.587-3.912h-1.956l.392-2.347H48.11s-2.346 13.3-2.346 14.865c0 2.347 1.369 3.52 3.324 3.52a6.003 6.003 0 002.543-.586zm1.369-6.454c0 5.672 3.912 7.042 7.04 7.042 2.934 0 4.303-.587 4.303-.587l.783-3.912s-2.152.978-4.303.978c-4.498 0-3.716-3.325-3.716-3.325h8.214s.587-2.543.587-3.716c0-2.543-1.37-5.868-5.867-5.868C56.13 31.882 53 36.38 53 41.466zm7.04-5.868c2.152 0 1.76 2.543 1.76 2.739h-4.497c.195-.196.586-2.739 2.738-2.739zM85.662 47.92l.782-4.498s-1.956.978-3.52.978c-2.739 0-4.108-2.152-4.108-4.694 0-4.89 2.347-7.433 5.28-7.433 1.957 0 3.717 1.174 3.717 1.174l.587-4.304s-2.347-.977-4.694-.977c-4.694 0-9.192 4.107-9.192 11.735 0 5.086 2.347 8.41 7.236 8.41 1.76.196 3.912-.39 3.912-.39zm-56.13-16.038c-2.738 0-4.89.782-4.89.782l-.586 3.521s1.76-.782 4.498-.782c1.369 0 2.542.195 2.542 1.369 0 .782-.195.978-.195.978h-1.76c-3.52 0-7.237 1.37-7.237 6.063 0 3.717 2.347 4.5 3.912 4.5 2.738 0 4.107-1.761 4.303-1.761l-.196 1.565h3.325l1.564-11.15c0-4.89-3.911-5.085-5.28-5.085zm.782 8.997c0 .587-.391 3.912-2.738 3.912-1.174 0-1.565-.978-1.565-1.564 0-.978.587-2.348 3.716-2.348h.587zm8.409 7.433c.978 0 6.063.195 6.063-5.281 0-5.086-4.89-4.108-4.89-6.064 0-.978.783-1.369 2.152-1.369.587 0 2.738.196 2.738.196l.587-3.716s-1.37-.392-3.912-.392c-2.933 0-6.062 1.174-6.062 5.281 0 4.695 5.084 4.303 5.084 6.064 0 1.173-1.368 1.369-2.346 1.369-1.76 0-3.716-.587-3.716-.587l-.587 3.716c.391.392 1.565.783 4.89.783zm80.578-19.56l-.783 5.477s-1.564-1.956-3.911-1.956c-3.716 0-6.845 4.499-6.845 9.78 0 3.325 1.564 6.65 5.085 6.65 2.347 0 3.911-1.565 3.911-1.565l-.195 1.37h4.107l2.933-19.364-4.302-.392zm-1.956 10.563c0 2.151-.978 5.085-3.325 5.085-1.369 0-2.151-1.173-2.151-3.325 0-3.325 1.369-5.281 3.325-5.281 1.369.196 2.151 1.173 2.151 3.52zM7.432 48.116l2.347-14.474.391 14.474h2.738l5.28-14.474-2.15 14.474h4.302l3.325-19.364h-6.65l-4.107 11.932-.195-11.932H6.845L3.521 48.116h3.911z" fill="#fff"/><path d="M70.016 48.116c1.173-6.65 1.369-12.127 4.302-11.148.392-2.543.978-3.717 1.37-4.695h-.783c-1.76 0-3.325 2.347-3.325 2.347l.392-2.151H68.06l-2.542 15.647h4.498zM95.05 31.882c-2.739 0-4.89.782-4.89.782l-.587 3.521s1.76-.782 4.498-.782c1.37 0 2.543.195 2.543 1.369 0 .782-.196.978-.196.978h-1.76c-3.52 0-7.236 1.37-7.236 6.063 0 3.717 2.347 4.5 3.911 4.5 2.738 0 4.107-1.761 4.303-1.761l-.196 1.565h3.716l1.565-11.15c0-4.89-4.303-5.085-5.672-5.085zm.977 8.997c0 .587-.391 3.912-2.738 3.912-1.173 0-1.564-.978-1.564-1.564 0-.978.586-2.348 3.715-2.348h.587zm7.823 7.237c1.173-6.65 1.369-12.127 4.302-11.148.392-2.543.978-3.717 1.369-4.695h-.782c-1.76 0-3.325 2.347-3.325 2.347l.392-2.151h-3.912l-2.542 15.647h4.498z" fill="#fff"/></svg>