<svg width="154" height="48" fill="none" xmlns="http://www.w3.org/2000/svg"><path d="M143.142.673h-9.647c-2.917 0-5.16.898-6.507 3.815l-18.397 41.96h13.013s2.243-5.61 2.692-6.956h15.93c.448 1.57 1.57 6.731 1.57 6.731h11.667L143.142.673zm-15.256 29.394c1.122-2.692 4.936-12.79 4.936-12.79 0 .225 1.122-2.692 1.57-4.263l.898 4.04s2.468 10.994 2.916 13.238h-10.32v-.225zm-18.398 1.347c0 9.424-8.526 15.707-21.763 15.707-5.61 0-10.994-1.122-13.91-2.469l1.794-10.321 1.57.673c4.04 1.795 6.732 2.468 11.668 2.468 3.59 0 7.404-1.346 7.404-4.488 0-2.02-1.571-3.365-6.507-5.61-4.712-2.243-10.994-5.833-10.994-12.34C78.75 6.058 87.5 0 99.84 0c4.712 0 8.75.898 11.218 2.02l-1.795 9.872-.897-.897c-2.244-.898-5.16-1.795-9.423-1.795-4.712.224-6.955 2.244-6.955 4.039 0 2.02 2.692 3.59 6.955 5.61 7.179 3.365 10.545 7.18 10.545 12.565z" fill="#3362AB"/><path d="M0 1.122L.224.224H19.52c2.693 0 4.712.898 5.385 3.815l4.263 20.194C24.904 13.463 15.032 4.712 0 1.122z" fill="#F9B50B"/><path d="M56.315.673l-19.52 45.55H23.558L12.34 8.078c8.077 5.16 14.808 13.238 17.276 18.848l1.346 4.712L43.077.448h13.238v.225zm5.16-.225h12.34l-7.853 45.775h-12.34L61.475.448z" fill="#3362AB"/></svg>